<?xml version="1.0" encoding="UTF-8"?><svg xmlns="http://www.w3.org/2000/svg" xmlns:xlink="http://www.w3.org/1999/xlink" fill-opacity="1" color-rendering="auto" color-interpolation="auto" text-rendering="auto" stroke="black" stroke-linecap="square" width="377" stroke-miterlimit="10" shape-rendering="auto" stroke-opacity="1" fill="black" stroke-dasharray="none" font-weight="normal" stroke-width="1" height="412" font-family="'Dialog'" font-style="normal" stroke-linejoin="miter" font-size="12px" stroke-dashoffset="0" image-rendering="auto">
  <!--Generated by ySVG 2.5-->
  <defs id="genericDefs"/>
  <g>
    <defs id="defs1">
      <clipPath clipPathUnits="userSpaceOnUse" id="clipPath1">
        <path d="M0 0 L377 0 L377 412 L0 412 L0 0 Z"/>
      </clipPath>
      <clipPath clipPathUnits="userSpaceOnUse" id="clipPath2">
        <path d="M45 22 L422 22 L422 434 L45 434 L45 22 Z"/>
      </clipPath>
    </defs>
    <g text-rendering="geometricPrecision" stroke-miterlimit="1.45" shape-rendering="geometricPrecision" transform="matrix(1,0,0,1,-45,-22)" stroke-linecap="butt">
      <circle fill="none" r="15" clip-path="url(#clipPath2)" cx="102" cy="38"/>
    </g>
    <g text-rendering="geometricPrecision" stroke-miterlimit="1.45" shape-rendering="geometricPrecision" transform="matrix(1,0,0,1,-45,-22)" stroke-linecap="butt">
      <rect fill="none" x="64" width="76" height="21" y="75" clip-path="url(#clipPath2)"/>
      <text x="71.4346" xml:space="preserve" y="89.6543" clip-path="url(#clipPath2)" font-family="sans-serif" stroke="none">s, ret, a, b</text>
      <circle fill="none" r="15" clip-path="url(#clipPath2)" cx="102" cy="133"/>
      <rect fill="none" x="68" width="76" height="21" y="170" clip-path="url(#clipPath2)"/>
      <text x="79.5596" xml:space="preserve" y="184.6543" clip-path="url(#clipPath2)" font-family="sans-serif" stroke="none">c = a * b</text>
      <circle fill="none" r="15" clip-path="url(#clipPath2)" cx="106" cy="228"/>
      <rect fill="none" x="68" width="76" height="21" y="265" clip-path="url(#clipPath2)"/>
      <text x="91.6738" xml:space="preserve" y="279.6543" clip-path="url(#clipPath2)" font-family="sans-serif" stroke="none">i = 0</text>
      <circle fill="none" r="15" clip-path="url(#clipPath2)" cx="106" cy="323"/>
      <text x="92.3652" xml:space="preserve" y="327.1543" clip-path="url(#clipPath2)" font-family="sans-serif" stroke="none">i &lt; s</text>
      <circle fill="none" r="15" clip-path="url(#clipPath2)" cx="234.75" cy="38"/>
      <text x="219.75" xml:space="preserve" y="42.1543" clip-path="url(#clipPath2)" font-family="sans-serif" stroke="none">i % 5</text>
      <circle fill="none" r="15" clip-path="url(#clipPath2)" cx="234.75" cy="141"/>
      <text x="208.5527" xml:space="preserve" y="145.1543" clip-path="url(#clipPath2)" font-family="sans-serif" stroke="none">ret == 1</text>
      <rect fill="none" x="68" width="76" height="21" y="360" clip-path="url(#clipPath2)"/>
      <text x="84.6631" xml:space="preserve" y="374.6543" clip-path="url(#clipPath2)" font-family="sans-serif" stroke="none">&lt;nop&gt;</text>
      <rect fill="none" x="196.75" width="76" height="21" y="75" clip-path="url(#clipPath2)"/>
      <text x="208.9014" xml:space="preserve" y="89.6543" clip-path="url(#clipPath2)" font-family="sans-serif" stroke="none">ret &amp;= 3</text>
      <rect fill="none" x="317.5" width="76" height="21" y="73.5" clip-path="url(#clipPath2)"/>
      <text x="334.1631" xml:space="preserve" y="88.1543" clip-path="url(#clipPath2)" font-family="sans-serif" stroke="none">&lt;nop&gt;</text>
      <rect fill="none" x="196.75" width="76" height="21" y="188.5" clip-path="url(#clipPath2)"/>
      <text x="213.4131" xml:space="preserve" y="203.1543" clip-path="url(#clipPath2)" font-family="sans-serif" stroke="none">&lt;nop&gt;</text>
      <rect fill="none" x="317.5" width="76" height="21" y="183.5" clip-path="url(#clipPath2)"/>
      <text x="329.3027" xml:space="preserve" y="198.1543" clip-path="url(#clipPath2)" font-family="sans-serif" stroke="none">ret += 3</text>
      <circle fill="none" r="15" clip-path="url(#clipPath2)" cx="235.5" cy="255.25"/>
      <text x="209.3027" xml:space="preserve" y="259.4043" clip-path="url(#clipPath2)" font-family="sans-serif" stroke="none">ret == 4</text>
      <rect fill="none" x="197.5" width="76" height="21" y="307.25" clip-path="url(#clipPath2)"/>
      <text x="223.7783" xml:space="preserve" y="321.9043" clip-path="url(#clipPath2)" font-family="sans-serif" stroke="none">++i</text>
      <rect fill="none" x="312.5" width="76" height="21" y="307.25" clip-path="url(#clipPath2)"/>
      <text x="327.0215" xml:space="preserve" y="321.9043" clip-path="url(#clipPath2)" font-family="sans-serif" stroke="none">ret *= s</text>
      <circle fill="none" r="15" clip-path="url(#clipPath2)" cx="294.25" cy="361.5"/>
      <rect fill="none" x="272.5" width="76" height="21" y="394.75" clip-path="url(#clipPath2)"/>
      <text x="287.8271" xml:space="preserve" y="409.4043" clip-path="url(#clipPath2)" font-family="sans-serif" stroke="none">ret /= c</text>
      <circle fill="none" r="15" clip-path="url(#clipPath2)" cx="393.5" cy="405.25"/>
      <path fill="none" d="M102 53 L102 67" clip-path="url(#clipPath2)"/>
      <path d="M102 75 L107 63 L102 66 L97 63 Z" clip-path="url(#clipPath2)" stroke="none"/>
      <path fill="none" d="M102 96 L102 110" clip-path="url(#clipPath2)"/>
      <path d="M102 118 L107 106 L102 109 L97 106 Z" clip-path="url(#clipPath2)" stroke="none"/>
      <path fill="none" d="M103.2587 147.9471 L104.4445 162.0282" clip-path="url(#clipPath2)"/>
      <path d="M105.1158 170 L109.0912 157.6228 L104.3606 161.0317 L99.1265 158.4619 Z" clip-path="url(#clipPath2)" stroke="none"/>
      <path fill="none" d="M106 191 L106 205" clip-path="url(#clipPath2)"/>
      <path d="M106 213 L111 201 L106 204 L101 201 Z" clip-path="url(#clipPath2)" stroke="none"/>
      <path fill="none" d="M106 243 L106 257" clip-path="url(#clipPath2)"/>
      <path d="M106 265 L111 253 L106 256 L101 253 Z" clip-path="url(#clipPath2)" stroke="none"/>
      <path fill="none" d="M106 286 L106 300" clip-path="url(#clipPath2)"/>
      <path d="M106 308 L111 296 L106 299 L101 296 Z" clip-path="url(#clipPath2)" stroke="none"/>
      <path fill="none" d="M106 338 L106 352" clip-path="url(#clipPath2)"/>
      <path d="M106 360 L111 348 L106 351 L101 348 Z" clip-path="url(#clipPath2)" stroke="none"/>
      <path fill="none" d="M106 381 L106 411.5 L173 411.5 L173 38 L211.75 38" clip-path="url(#clipPath2)"/>
      <path d="M219.75 38 L207.75 33 L210.75 38 L207.75 43 Z" clip-path="url(#clipPath2)" stroke="none"/>
      <path fill="none" d="M234.75 53 L234.75 67" clip-path="url(#clipPath2)"/>
      <path d="M234.75 75 L239.75 63 L234.75 66 L229.75 63 Z" clip-path="url(#clipPath2)" stroke="none"/>
      <path fill="none" d="M234.75 96 L234.75 118" clip-path="url(#clipPath2)"/>
      <path d="M234.75 126 L239.75 114 L234.75 117 L229.75 114 Z" clip-path="url(#clipPath2)" stroke="none"/>
      <path fill="none" d="M248.7673 43.3399 L324.1996 72.076" clip-path="url(#clipPath2)"/>
    </g>
    <g stroke-linecap="butt" transform="matrix(1,0,0,1,-45,-22)" fill-opacity="0" fill="rgb(0,0,0)" text-rendering="geometricPrecision" shape-rendering="geometricPrecision" stroke="rgb(0,0,0)" stroke-opacity="0" stroke-miterlimit="1.45">
      <path d="M331.6754 74.924 C330.889 76.9884 328.5779 78.0244 326.5135 77.238 C324.4491 76.4515 323.4131 74.1404 324.1996 72.076 C324.986 70.0116 327.2971 68.9756 329.3615 69.762 C331.4259 70.5485 332.4619 72.8596 331.6754 74.924 Z" stroke="none" clip-path="url(#clipPath2)"/>
    </g>
    <g text-rendering="geometricPrecision" stroke-miterlimit="1.45" shape-rendering="geometricPrecision" transform="matrix(1,0,0,1,-45,-22)" stroke-linecap="butt">
      <path fill="none" d="M331.6754 74.924 C330.889 76.9884 328.5779 78.0244 326.5135 77.238 C324.4491 76.4515 323.4131 74.1404 324.1996 72.076 C324.986 70.0116 327.2971 68.9756 329.3615 69.762 C331.4259 70.5485 332.4619 72.8596 331.6754 74.924 Z" clip-path="url(#clipPath2)"/>
      <path fill="none" d="M333.2566 94.5 L255.5491 131.1818" clip-path="url(#clipPath2)"/>
      <path d="M248.3146 134.5968 L261.3008 133.9958 L256.4534 130.7549 L257.032 124.9527 Z" clip-path="url(#clipPath2)" stroke="none"/>
      <path fill="none" d="M234.75 156 L234.75 184.5" clip-path="url(#clipPath2)"/>
    </g>
    <g stroke-linecap="butt" transform="matrix(1,0,0,1,-45,-22)" fill-opacity="0" fill="rgb(0,0,0)" text-rendering="geometricPrecision" shape-rendering="geometricPrecision" stroke="rgb(0,0,0)" stroke-opacity="0" stroke-miterlimit="1.45">
      <path d="M234.75 192.5 C232.5409 192.5 230.75 190.7091 230.75 188.5 C230.75 186.2909 232.5409 184.5 234.75 184.5 C236.9591 184.5 238.75 186.2909 238.75 188.5 C238.75 190.7091 236.9591 192.5 234.75 192.5 Z" stroke="none" clip-path="url(#clipPath2)"/>
    </g>
    <g text-rendering="geometricPrecision" stroke-miterlimit="1.45" shape-rendering="geometricPrecision" transform="matrix(1,0,0,1,-45,-22)" stroke-linecap="butt">
      <path fill="none" d="M234.75 192.5 C232.5409 192.5 230.75 190.7091 230.75 188.5 C230.75 186.2909 232.5409 184.5 234.75 184.5 C236.9591 184.5 238.75 186.2909 238.75 188.5 C238.75 190.7091 236.9591 192.5 234.75 192.5 Z" clip-path="url(#clipPath2)"/>
      <path fill="none" d="M248.4852 147.0287 L324.2524 180.2847" clip-path="url(#clipPath2)"/>
      <path d="M331.5778 183.5 L322.5992 174.0986 L323.3367 179.8828 L318.5801 183.2554 Z" clip-path="url(#clipPath2)" stroke="none"/>
      <path fill="none" d="M234.89 209.5 L235.1934 232.252" clip-path="url(#clipPath2)"/>
      <path d="M235.3 240.2513 L240.1396 228.1857 L235.18 231.2521 L230.1405 228.3191 Z" clip-path="url(#clipPath2)" stroke="none"/>
      <path fill="none" d="M235.5 270.25 L235.5 303.25" clip-path="url(#clipPath2)"/>
    </g>
    <g stroke-linecap="butt" transform="matrix(1,0,0,1,-45,-22)" fill-opacity="0" fill="rgb(0,0,0)" text-rendering="geometricPrecision" shape-rendering="geometricPrecision" stroke="rgb(0,0,0)" stroke-opacity="0" stroke-miterlimit="1.45">
      <path d="M235.5 311.25 C233.2909 311.25 231.5 309.4591 231.5 307.25 C231.5 305.0409 233.2909 303.25 235.5 303.25 C237.7091 303.25 239.5 305.0409 239.5 307.25 C239.5 309.4591 237.7091 311.25 235.5 311.25 Z" stroke="none" clip-path="url(#clipPath2)"/>
    </g>
    <g text-rendering="geometricPrecision" stroke-miterlimit="1.45" shape-rendering="geometricPrecision" transform="matrix(1,0,0,1,-45,-22)" stroke-linecap="butt">
      <path fill="none" d="M235.5 311.25 C233.2909 311.25 231.5 309.4591 231.5 307.25 C231.5 305.0409 233.2909 303.25 235.5 303.25 C237.7091 303.25 239.5 305.0409 239.5 307.25 C239.5 309.4591 237.7091 311.25 235.5 311.25 Z" clip-path="url(#clipPath2)"/>
      <path fill="none" d="M235.5 328.25 L235.5 361.5 L235.5 432.75 L46.75 432.75 L46.75 323 L83 323" clip-path="url(#clipPath2)"/>
      <path d="M91 323 L79 318 L82 323 L79 328 Z" clip-path="url(#clipPath2)" stroke="none"/>
      <path fill="none" d="M248.6794 262.4127 L324.151 303.4299" clip-path="url(#clipPath2)"/>
      <path d="M331.18 307.25 L323.024 297.1267 L323.2724 302.9524 L318.2489 305.913 Z" clip-path="url(#clipPath2)" stroke="none"/>
      <path fill="none" d="M393.5 194 L419.25 194 L419.25 361.5 L317.25 361.5" clip-path="url(#clipPath2)"/>
      <path d="M309.25 361.5 L321.25 366.5 L318.25 361.5 L321.25 356.5 Z" clip-path="url(#clipPath2)" stroke="none"/>
      <path fill="none" d="M388.5 317.75 L418 317.75 L420.5 317.75 L420.5 361.5 L317.25 361.5" clip-path="url(#clipPath2)"/>
      <path d="M309.25 361.5 L321.25 366.5 L318.25 361.5 L321.25 356.5 Z" clip-path="url(#clipPath2)" stroke="none"/>
      <path fill="none" d="M279.25 361.5 L257.25 361.5 L257.25 336.261" clip-path="url(#clipPath2)"/>
      <path d="M257.25 328.261 L252.25 340.261 L257.25 337.261 L262.25 340.261 Z" clip-path="url(#clipPath2)" stroke="none"/>
      <path fill="none" d="M119.9649 328.4755 L144.225 337.9875 L151.7836 341.2131 L158.8219 344.7586 L165.3398 348.624 L171.3375 352.8094 L176.8148 357.3146 L181.7719 362.1398 L186.2086 367.285 L190.125 372.75 L193.375 377.75 L197.5234 383.0586 L202.6562 387.7344 L208.7734 391.7773 L215.875 395.1875 L223.9609 397.9648 L233.0312 400.1094 L243.0859 401.6211 L254.125 402.5 L268.5048 403.2014" clip-path="url(#clipPath2)"/>
    </g>
    <g stroke-linecap="butt" transform="matrix(1,0,0,1,-45,-22)" fill-opacity="0" fill="rgb(0,0,0)" text-rendering="geometricPrecision" shape-rendering="geometricPrecision" stroke="rgb(0,0,0)" stroke-opacity="0" stroke-miterlimit="1.45">
      <path d="M276.4952 403.5912 C276.3876 405.7977 274.5116 407.4992 272.3051 407.3916 C270.0986 407.2839 268.3971 405.408 268.5048 403.2014 C268.6124 400.9949 270.4884 399.2935 272.6949 399.4011 C274.9014 399.5087 276.6029 401.3847 276.4952 403.5912 Z" stroke="none" clip-path="url(#clipPath2)"/>
    </g>
    <g text-rendering="geometricPrecision" stroke-miterlimit="1.45" shape-rendering="geometricPrecision" transform="matrix(1,0,0,1,-45,-22)" stroke-linecap="butt">
      <path fill="none" d="M276.4952 403.5912 C276.3876 405.7977 274.5116 407.4992 272.3051 407.3916 C270.0986 407.2839 268.3971 405.408 268.5048 403.2014 C268.6124 400.9949 270.4884 399.2935 272.6949 399.4011 C274.9014 399.5087 276.6029 401.3847 276.4952 403.5912 Z" clip-path="url(#clipPath2)"/>
      <path fill="none" d="M348.5 405.25 L370.5 405.25" clip-path="url(#clipPath2)"/>
      <path d="M378.5 405.25 L366.5 400.25 L369.5 405.25 L366.5 410.25 Z" clip-path="url(#clipPath2)" stroke="none"/>
    </g>
  </g>
</svg>
