<?xml version="1.0" encoding="UTF-8"?><svg xmlns="http://www.w3.org/2000/svg" xmlns:xlink="http://www.w3.org/1999/xlink" fill-opacity="1" color-rendering="auto" color-interpolation="auto" text-rendering="auto" stroke="black" stroke-linecap="square" width="325" stroke-miterlimit="10" shape-rendering="auto" stroke-opacity="1" fill="black" stroke-dasharray="none" font-weight="normal" stroke-width="1" height="810" font-family="'Dialog'" font-style="normal" stroke-linejoin="miter" font-size="12px" stroke-dashoffset="0" image-rendering="auto">
  <!--Generated by ySVG 2.5-->
  <defs id="genericDefs"/>
  <g>
    <defs id="defs1">
      <linearGradient x1="-125.75" gradientUnits="userSpaceOnUse" x2="-45.75" y1="-99.0833" y2="-59.0833" id="linearGradient1" spreadMethod="reflect">
        <stop stop-opacity="1" stop-color="rgb(232,238,247)" offset="0%"/>
        <stop stop-opacity="1" stop-color="rgb(183,201,227)" offset="100%"/>
      </linearGradient>
      <linearGradient x1="-123.75" gradientUnits="userSpaceOnUse" x2="-43.75" y1="667.4167" y2="707.4167" id="linearGradient2" spreadMethod="reflect">
        <stop stop-opacity="1" stop-color="rgb(232,238,247)" offset="0%"/>
        <stop stop-opacity="1" stop-color="rgb(183,201,227)" offset="100%"/>
      </linearGradient>
      <linearGradient x1="-125.75" gradientUnits="userSpaceOnUse" x2="-45.75" y1="-29.0833" y2="10.9167" id="linearGradient3" spreadMethod="reflect">
        <stop stop-opacity="1" stop-color="rgb(232,238,247)" offset="0%"/>
        <stop stop-opacity="1" stop-color="rgb(183,201,227)" offset="100%"/>
      </linearGradient>
      <linearGradient x1="-125.75" gradientUnits="userSpaceOnUse" x2="-45.75" y1="40.9167" y2="80.9167" id="linearGradient4" spreadMethod="reflect">
        <stop stop-opacity="1" stop-color="rgb(232,238,247)" offset="0%"/>
        <stop stop-opacity="1" stop-color="rgb(183,201,227)" offset="100%"/>
      </linearGradient>
      <linearGradient x1="-125.75" gradientUnits="userSpaceOnUse" x2="-45.75" y1="110.9167" y2="150.9167" id="linearGradient5" spreadMethod="reflect">
        <stop stop-opacity="1" stop-color="rgb(232,238,247)" offset="0%"/>
        <stop stop-opacity="1" stop-color="rgb(183,201,227)" offset="100%"/>
      </linearGradient>
      <linearGradient x1="-125.75" gradientUnits="userSpaceOnUse" x2="-45.75" y1="178.6667" y2="218.6667" id="linearGradient6" spreadMethod="reflect">
        <stop stop-opacity="1" stop-color="rgb(232,238,247)" offset="0%"/>
        <stop stop-opacity="1" stop-color="rgb(183,201,227)" offset="100%"/>
      </linearGradient>
      <linearGradient x1="-125.75" gradientUnits="userSpaceOnUse" x2="-45.75" y1="247.4167" y2="287.4167" id="linearGradient7" spreadMethod="reflect">
        <stop stop-opacity="1" stop-color="rgb(232,238,247)" offset="0%"/>
        <stop stop-opacity="1" stop-color="rgb(183,201,227)" offset="100%"/>
      </linearGradient>
      <linearGradient x1="-123.75" gradientUnits="userSpaceOnUse" x2="-43.75" y1="387.4167" y2="427.4167" id="linearGradient8" spreadMethod="reflect">
        <stop stop-opacity="1" stop-color="rgb(232,238,247)" offset="0%"/>
        <stop stop-opacity="1" stop-color="rgb(183,201,227)" offset="100%"/>
      </linearGradient>
      <linearGradient x1="-123.75" gradientUnits="userSpaceOnUse" x2="-43.75" y1="317.4167" y2="357.4167" id="linearGradient9" spreadMethod="reflect">
        <stop stop-opacity="1" stop-color="rgb(232,238,247)" offset="0%"/>
        <stop stop-opacity="1" stop-color="rgb(183,201,227)" offset="100%"/>
      </linearGradient>
      <linearGradient x1="-123.75" gradientUnits="userSpaceOnUse" x2="-43.75" y1="457.4167" y2="497.4167" id="linearGradient10" spreadMethod="reflect">
        <stop stop-opacity="1" stop-color="rgb(232,238,247)" offset="0%"/>
        <stop stop-opacity="1" stop-color="rgb(183,201,227)" offset="100%"/>
      </linearGradient>
      <linearGradient x1="-123.75" gradientUnits="userSpaceOnUse" x2="-43.75" y1="527.4167" y2="567.4167" id="linearGradient11" spreadMethod="reflect">
        <stop stop-opacity="1" stop-color="rgb(232,238,247)" offset="0%"/>
        <stop stop-opacity="1" stop-color="rgb(183,201,227)" offset="100%"/>
      </linearGradient>
      <linearGradient x1="-10" gradientUnits="userSpaceOnUse" x2="70" y1="387.4167" y2="427.4167" id="linearGradient12" spreadMethod="reflect">
        <stop stop-opacity="1" stop-color="rgb(232,238,247)" offset="0%"/>
        <stop stop-opacity="1" stop-color="rgb(183,201,227)" offset="100%"/>
      </linearGradient>
      <linearGradient x1="-10" gradientUnits="userSpaceOnUse" x2="70" y1="457.4167" y2="497.4167" id="linearGradient13" spreadMethod="reflect">
        <stop stop-opacity="1" stop-color="rgb(232,238,247)" offset="0%"/>
        <stop stop-opacity="1" stop-color="rgb(183,201,227)" offset="100%"/>
      </linearGradient>
      <linearGradient x1="-123.75" gradientUnits="userSpaceOnUse" x2="-43.75" y1="597.4167" y2="637.4167" id="linearGradient14" spreadMethod="reflect">
        <stop stop-opacity="1" stop-color="rgb(232,238,247)" offset="0%"/>
        <stop stop-opacity="1" stop-color="rgb(183,201,227)" offset="100%"/>
      </linearGradient>
      <clipPath clipPathUnits="userSpaceOnUse" id="clipPath1">
        <path d="M0 0 L325 0 L325 810 L0 810 L0 0 Z"/>
      </clipPath>
      <clipPath clipPathUnits="userSpaceOnUse" id="clipPath2">
        <path d="M-195 -101 L130 -101 L130 709 L-195 709 L-195 -101 Z"/>
      </clipPath>
    </defs>
    <g fill="url(#linearGradient1)" text-rendering="geometricPrecision" shape-rendering="geometricPrecision" transform="matrix(1,0,0,1,195,101)" stroke="url(#linearGradient1)">
      <rect x="-125.75" y="-99.0833" clip-path="url(#clipPath2)" width="80" rx="20" ry="20" height="40" stroke="none"/>
    </g>
    <g text-rendering="geometricPrecision" stroke-miterlimit="1.45" shape-rendering="geometricPrecision" transform="matrix(1,0,0,1,195,101)" stroke-linecap="butt">
      <rect x="-125.75" y="-99.0833" clip-path="url(#clipPath2)" fill="none" width="80" rx="20" ry="20" height="40"/>
      <text x="-100.4072" xml:space="preserve" y="-74.929" clip-path="url(#clipPath2)" font-family="sans-serif" stroke="none">Start</text>
    </g>
    <g fill="url(#linearGradient2)" text-rendering="geometricPrecision" shape-rendering="geometricPrecision" transform="matrix(1,0,0,1,195,101)" stroke="url(#linearGradient2)">
      <rect x="-123.75" y="667.4167" clip-path="url(#clipPath2)" width="80" rx="20" ry="20" height="40" stroke="none"/>
    </g>
    <g text-rendering="geometricPrecision" stroke-miterlimit="1.45" shape-rendering="geometricPrecision" transform="matrix(1,0,0,1,195,101)" stroke-linecap="butt">
      <rect x="-123.75" y="667.4167" clip-path="url(#clipPath2)" fill="none" width="80" rx="20" ry="20" height="40"/>
      <text x="-95.1523" xml:space="preserve" y="691.571" clip-path="url(#clipPath2)" font-family="sans-serif" stroke="none">End</text>
    </g>
    <g fill="url(#linearGradient3)" text-rendering="geometricPrecision" shape-rendering="geometricPrecision" transform="matrix(1,0,0,1,195,101)" stroke="url(#linearGradient3)">
      <path d="M-125.75 -29.0833 L-45.75 -29.0833 L-45.75 10.9167 L-125.75 10.9167 Z" stroke="none" clip-path="url(#clipPath2)"/>
    </g>
    <g text-rendering="geometricPrecision" stroke-miterlimit="1.45" shape-rendering="geometricPrecision" transform="matrix(1,0,0,1,195,101)" stroke-linecap="butt">
      <path fill="none" d="M-125.75 -29.0833 L-45.75 -29.0833 L-45.75 10.9167 L-125.75 10.9167 Z" clip-path="url(#clipPath2)"/>
      <text x="-116.3154" xml:space="preserve" y="-4.929" clip-path="url(#clipPath2)" font-family="sans-serif" stroke="none">s, ret, a, b</text>
    </g>
    <g fill="url(#linearGradient4)" text-rendering="geometricPrecision" shape-rendering="geometricPrecision" transform="matrix(1,0,0,1,195,101)" stroke="url(#linearGradient4)">
      <path d="M-125.75 40.9167 L-45.75 40.9167 L-45.75 80.9167 L-125.75 80.9167 Z" stroke="none" clip-path="url(#clipPath2)"/>
    </g>
    <g text-rendering="geometricPrecision" stroke-miterlimit="1.45" shape-rendering="geometricPrecision" transform="matrix(1,0,0,1,195,101)" stroke-linecap="butt">
      <path fill="none" d="M-125.75 40.9167 L-45.75 40.9167 L-45.75 80.9167 L-125.75 80.9167 Z" clip-path="url(#clipPath2)"/>
      <text x="-112.1904" xml:space="preserve" y="65.071" clip-path="url(#clipPath2)" font-family="sans-serif" stroke="none">c = a * b</text>
    </g>
    <g fill="url(#linearGradient5)" text-rendering="geometricPrecision" shape-rendering="geometricPrecision" transform="matrix(1,0,0,1,195,101)" stroke="url(#linearGradient5)">
      <path d="M-125.75 110.9167 L-45.75 110.9167 L-45.75 150.9167 L-125.75 150.9167 Z" stroke="none" clip-path="url(#clipPath2)"/>
    </g>
    <g text-rendering="geometricPrecision" stroke-miterlimit="1.45" shape-rendering="geometricPrecision" transform="matrix(1,0,0,1,195,101)" stroke-linecap="butt">
      <path fill="none" d="M-125.75 110.9167 L-45.75 110.9167 L-45.75 150.9167 L-125.75 150.9167 Z" clip-path="url(#clipPath2)"/>
      <text x="-100.0762" xml:space="preserve" y="135.071" clip-path="url(#clipPath2)" font-family="sans-serif" stroke="none">i = 0</text>
    </g>
    <g fill="url(#linearGradient6)" text-rendering="geometricPrecision" shape-rendering="geometricPrecision" transform="matrix(1,0,0,1,195,101)" stroke="url(#linearGradient6)">
      <path d="M-85.75 178.6667 L-45.75 198.6667 L-85.75 218.6667 L-125.75 198.6667 Z" stroke="none" clip-path="url(#clipPath2)"/>
    </g>
    <g text-rendering="geometricPrecision" stroke-miterlimit="1.45" shape-rendering="geometricPrecision" transform="matrix(1,0,0,1,195,101)" stroke-linecap="butt">
      <path fill="none" d="M-85.75 178.6667 L-45.75 198.6667 L-85.75 218.6667 L-125.75 198.6667 Z" clip-path="url(#clipPath2)"/>
      <text x="-99.3848" xml:space="preserve" y="202.821" clip-path="url(#clipPath2)" font-family="sans-serif" stroke="none">i &lt; s</text>
    </g>
    <g fill="url(#linearGradient7)" text-rendering="geometricPrecision" shape-rendering="geometricPrecision" transform="matrix(1,0,0,1,195,101)" stroke="url(#linearGradient7)">
      <path d="M-85.75 247.4167 L-45.75 267.4167 L-85.75 287.4167 L-125.75 267.4167 Z" stroke="none" clip-path="url(#clipPath2)"/>
    </g>
    <g text-rendering="geometricPrecision" stroke-miterlimit="1.45" shape-rendering="geometricPrecision" transform="matrix(1,0,0,1,195,101)" stroke-linecap="butt">
      <path fill="none" d="M-85.75 247.4167 L-45.75 267.4167 L-85.75 287.4167 L-125.75 267.4167 Z" clip-path="url(#clipPath2)"/>
      <text x="-100.75" xml:space="preserve" y="271.571" clip-path="url(#clipPath2)" font-family="sans-serif" stroke="none">i % 5</text>
    </g>
    <g fill="url(#linearGradient8)" text-rendering="geometricPrecision" shape-rendering="geometricPrecision" transform="matrix(1,0,0,1,195,101)" stroke="url(#linearGradient8)">
      <path d="M-83.75 387.4167 L-43.75 407.4167 L-83.75 427.4167 L-123.75 407.4167 Z" stroke="none" clip-path="url(#clipPath2)"/>
    </g>
    <g text-rendering="geometricPrecision" stroke-miterlimit="1.45" shape-rendering="geometricPrecision" transform="matrix(1,0,0,1,195,101)" stroke-linecap="butt">
      <path fill="none" d="M-83.75 387.4167 L-43.75 407.4167 L-83.75 427.4167 L-123.75 407.4167 Z" clip-path="url(#clipPath2)"/>
      <text x="-109.9473" xml:space="preserve" y="411.571" clip-path="url(#clipPath2)" font-family="sans-serif" stroke="none">ret == 1</text>
    </g>
    <g fill="url(#linearGradient9)" text-rendering="geometricPrecision" shape-rendering="geometricPrecision" transform="matrix(1,0,0,1,195,101)" stroke="url(#linearGradient9)">
      <path d="M-123.75 317.4167 L-43.75 317.4167 L-43.75 357.4167 L-123.75 357.4167 Z" stroke="none" clip-path="url(#clipPath2)"/>
    </g>
    <g text-rendering="geometricPrecision" stroke-miterlimit="1.45" shape-rendering="geometricPrecision" transform="matrix(1,0,0,1,195,101)" stroke-linecap="butt">
      <path fill="none" d="M-123.75 317.4167 L-43.75 317.4167 L-43.75 357.4167 L-123.75 357.4167 Z" clip-path="url(#clipPath2)"/>
      <text x="-109.5986" xml:space="preserve" y="341.571" clip-path="url(#clipPath2)" font-family="sans-serif" stroke="none">ret &amp;= 3</text>
    </g>
    <g fill="url(#linearGradient10)" text-rendering="geometricPrecision" shape-rendering="geometricPrecision" transform="matrix(1,0,0,1,195,101)" stroke="url(#linearGradient10)">
      <path d="M-83.75 457.4167 L-43.75 477.4167 L-83.75 497.4167 L-123.75 477.4167 Z" stroke="none" clip-path="url(#clipPath2)"/>
    </g>
    <g text-rendering="geometricPrecision" stroke-miterlimit="1.45" shape-rendering="geometricPrecision" transform="matrix(1,0,0,1,195,101)" stroke-linecap="butt">
      <path fill="none" d="M-83.75 457.4167 L-43.75 477.4167 L-83.75 497.4167 L-123.75 477.4167 Z" clip-path="url(#clipPath2)"/>
      <text x="-109.9473" xml:space="preserve" y="481.571" clip-path="url(#clipPath2)" font-family="sans-serif" stroke="none">ret == 4</text>
    </g>
    <g fill="url(#linearGradient11)" text-rendering="geometricPrecision" shape-rendering="geometricPrecision" transform="matrix(1,0,0,1,195,101)" stroke="url(#linearGradient11)">
      <path d="M-123.75 527.4167 L-43.75 527.4167 L-43.75 567.4167 L-123.75 567.4167 Z" stroke="none" clip-path="url(#clipPath2)"/>
    </g>
    <g text-rendering="geometricPrecision" stroke-miterlimit="1.45" shape-rendering="geometricPrecision" transform="matrix(1,0,0,1,195,101)" stroke-linecap="butt">
      <path fill="none" d="M-123.75 527.4167 L-43.75 527.4167 L-43.75 567.4167 L-123.75 567.4167 Z" clip-path="url(#clipPath2)"/>
      <text x="-95.4717" xml:space="preserve" y="551.571" clip-path="url(#clipPath2)" font-family="sans-serif" stroke="none">++i</text>
    </g>
    <g fill="url(#linearGradient12)" text-rendering="geometricPrecision" shape-rendering="geometricPrecision" transform="matrix(1,0,0,1,195,101)" stroke="url(#linearGradient12)">
      <path d="M-10 387.4167 L70 387.4167 L70 427.4167 L-10 427.4167 Z" stroke="none" clip-path="url(#clipPath2)"/>
    </g>
    <g text-rendering="geometricPrecision" stroke-miterlimit="1.45" shape-rendering="geometricPrecision" transform="matrix(1,0,0,1,195,101)" stroke-linecap="butt">
      <path fill="none" d="M-10 387.4167 L70 387.4167 L70 427.4167 L-10 427.4167 Z" clip-path="url(#clipPath2)"/>
      <text x="3.8027" xml:space="preserve" y="411.571" clip-path="url(#clipPath2)" font-family="sans-serif" stroke="none">ret += 3</text>
    </g>
    <g fill="url(#linearGradient13)" text-rendering="geometricPrecision" shape-rendering="geometricPrecision" transform="matrix(1,0,0,1,195,101)" stroke="url(#linearGradient13)">
      <path d="M-10 457.4167 L70 457.4167 L70 497.4167 L-10 497.4167 Z" stroke="none" clip-path="url(#clipPath2)"/>
    </g>
    <g text-rendering="geometricPrecision" stroke-miterlimit="1.45" shape-rendering="geometricPrecision" transform="matrix(1,0,0,1,195,101)" stroke-linecap="butt">
      <path fill="none" d="M-10 457.4167 L70 457.4167 L70 497.4167 L-10 497.4167 Z" clip-path="url(#clipPath2)"/>
      <text x="6.5215" xml:space="preserve" y="481.571" clip-path="url(#clipPath2)" font-family="sans-serif" stroke="none">ret *= s</text>
    </g>
    <g fill="url(#linearGradient14)" text-rendering="geometricPrecision" shape-rendering="geometricPrecision" transform="matrix(1,0,0,1,195,101)" stroke="url(#linearGradient14)">
      <path d="M-123.75 597.4167 L-43.75 597.4167 L-43.75 637.4167 L-123.75 637.4167 Z" stroke="none" clip-path="url(#clipPath2)"/>
    </g>
    <g text-rendering="geometricPrecision" stroke-miterlimit="1.45" shape-rendering="geometricPrecision" transform="matrix(1,0,0,1,195,101)" stroke-linecap="butt">
      <path fill="none" d="M-123.75 597.4167 L-43.75 597.4167 L-43.75 637.4167 L-123.75 637.4167 Z" clip-path="url(#clipPath2)"/>
      <text x="-106.4229" xml:space="preserve" y="621.571" clip-path="url(#clipPath2)" font-family="sans-serif" stroke="none">ret /= c</text>
    </g>
    <g text-rendering="geometricPrecision" stroke-miterlimit="1.45" shape-rendering="geometricPrecision" transform="matrix(1,0,0,1,195,101)" stroke-linecap="butt">
      <path fill="none" d="M-85.75 -59.0882 L-85.75 -37.056" clip-path="url(#clipPath2)"/>
    </g>
    <g text-rendering="geometricPrecision" stroke-miterlimit="1.45" shape-rendering="geometricPrecision" transform="matrix(1,0,0,1,195,101)" stroke-linecap="butt">
      <path d="M-85.75 -29.056 L-80.75 -41.056 L-85.75 -38.056 L-90.75 -41.056 Z" stroke="none" clip-path="url(#clipPath2)"/>
      <path fill="none" d="M-85.75 10.9118 L-85.75 32.944" clip-path="url(#clipPath2)"/>
      <path d="M-85.75 40.944 L-80.75 28.944 L-85.75 31.944 L-90.75 28.944 Z" clip-path="url(#clipPath2)" stroke="none"/>
      <path fill="none" d="M-85.75 80.9118 L-85.75 102.944" clip-path="url(#clipPath2)"/>
      <path d="M-85.75 110.944 L-80.75 98.944 L-85.75 101.944 L-90.75 98.944 Z" clip-path="url(#clipPath2)" stroke="none"/>
      <path fill="none" d="M-85.75 150.9307 L-85.75 170.6679" clip-path="url(#clipPath2)"/>
      <path d="M-85.75 178.6679 L-80.75 166.6679 L-85.75 169.6679 L-90.75 166.6679 Z" clip-path="url(#clipPath2)" stroke="none"/>
      <path fill="none" d="M-85.75 218.6404 L-85.75 239.4584" clip-path="url(#clipPath2)"/>
      <path d="M-85.75 247.4584 L-80.75 235.4584 L-85.75 238.4584 L-90.75 235.4584 Z" clip-path="url(#clipPath2)" stroke="none"/>
      <text x="-96.915" xml:space="preserve" y="234.696" clip-path="url(#clipPath2)" font-family="sans-serif" stroke="none">Y</text>
      <path fill="none" d="M-125.7161 267.4167 L-156.25 267.4167 L-156.25 407.4167 L-131.717 407.4167" clip-path="url(#clipPath2)"/>
      <path d="M-123.717 407.4167 L-135.717 402.4167 L-132.717 407.4167 L-135.717 412.4167 Z" clip-path="url(#clipPath2)" stroke="none"/>
      <text x="-152.2266" xml:space="preserve" y="284.071" clip-path="url(#clipPath2)" font-family="sans-serif" stroke="none">N</text>
      <path fill="none" d="M-85.1865 287.1383 L-84.5494 309.4362" clip-path="url(#clipPath2)"/>
      <path d="M-84.321 317.433 L-79.6657 305.2951 L-84.578 308.4366 L-89.6616 305.5807 Z" clip-path="url(#clipPath2)" stroke="none"/>
      <text x="-99.6773" xml:space="preserve" y="304.071" clip-path="url(#clipPath2)" font-family="sans-serif" stroke="none">Y</text>
      <path fill="none" d="M-83.75 357.4118 L-83.75 379.444" clip-path="url(#clipPath2)"/>
      <path d="M-83.75 387.444 L-78.75 375.444 L-83.75 378.444 L-88.75 375.444 Z" clip-path="url(#clipPath2)" stroke="none"/>
      <path fill="none" d="M-83.75 427.4118 L-83.75 449.444" clip-path="url(#clipPath2)"/>
      <path d="M-83.75 457.444 L-78.75 445.444 L-83.75 448.444 L-88.75 445.444 Z" clip-path="url(#clipPath2)" stroke="none"/>
      <text x="-98.2383" xml:space="preserve" y="442.821" clip-path="url(#clipPath2)" font-family="sans-serif" stroke="none">N</text>
      <path fill="none" d="M-83.75 497.4118 L-83.75 519.444" clip-path="url(#clipPath2)"/>
      <path d="M-83.75 527.444 L-78.75 515.444 L-83.75 518.444 L-88.75 515.444 Z" clip-path="url(#clipPath2)" stroke="none"/>
      <text x="-96.9883" xml:space="preserve" y="514.071" clip-path="url(#clipPath2)" font-family="sans-serif" stroke="none">N</text>
      <path fill="none" d="M-123.7512 554.6896 L-125 554.9167 L-193.75 554.9167 L-193.75 198.6667 L-133.749 198.6667" clip-path="url(#clipPath2)"/>
      <path d="M-125.749 198.6667 L-137.749 193.6667 L-134.749 198.6667 L-137.749 203.6667 Z" clip-path="url(#clipPath2)" stroke="none"/>
      <path fill="none" d="M-43.732 407.4167 L-17.9982 407.4167" clip-path="url(#clipPath2)"/>
      <path d="M-9.9982 407.4167 L-21.9982 402.4167 L-18.9982 407.4167 L-21.9982 412.4167 Z" clip-path="url(#clipPath2)" stroke="none"/>
      <text x="-36.75" xml:space="preserve" y="400.321" clip-path="url(#clipPath2)" font-family="sans-serif" stroke="none">Y</text>
      <path fill="none" d="M70.0153 407.4167 L96.25 407.4167 L96.25 547.4167 L-35.7158 547.4167" clip-path="url(#clipPath2)"/>
      <path d="M-43.7158 547.4167 L-31.7158 552.4167 L-34.7158 547.4167 L-31.7158 542.4167 Z" clip-path="url(#clipPath2)" stroke="none"/>
      <path fill="none" d="M-43.732 477.4167 L-17.9982 477.4167" clip-path="url(#clipPath2)"/>
      <path d="M-9.9982 477.4167 L-21.9982 472.4167 L-18.9982 477.4167 L-21.9982 482.4167 Z" clip-path="url(#clipPath2)" stroke="none"/>
      <text x="-39.25" xml:space="preserve" y="472.821" clip-path="url(#clipPath2)" font-family="sans-serif" stroke="none">Y</text>
      <path fill="none" d="M14.718 497.4008 L13.75 498.6667 L13.75 547.4167 L-35.7122 547.4167" clip-path="url(#clipPath2)"/>
      <path d="M-43.7122 547.4167 L-31.7122 552.4167 L-34.7122 547.4167 L-31.7122 542.4167 Z" clip-path="url(#clipPath2)" stroke="none"/>
      <path fill="none" d="M-45.7799 198.6667 L-20 198.6667 L128.75 198.6667 L128.75 617.4167 L-35.7247 617.4167" clip-path="url(#clipPath2)"/>
      <path d="M-43.7247 617.4167 L-31.7247 622.4167 L-34.7247 617.4167 L-31.7247 612.4167 Z" clip-path="url(#clipPath2)" stroke="none"/>
      <text x="89.2617" xml:space="preserve" y="194.071" clip-path="url(#clipPath2)" font-family="sans-serif" stroke="none">N</text>
      <path fill="none" d="M-83.75 637.4118 L-83.75 659.444" clip-path="url(#clipPath2)"/>
      <path d="M-83.75 667.444 L-78.75 655.444 L-83.75 658.444 L-88.75 655.444 Z" clip-path="url(#clipPath2)" stroke="none"/>
    </g>
  </g>
</svg>
