<?xml version="1.0" encoding="UTF-8"?><svg xmlns="http://www.w3.org/2000/svg" xmlns:xlink="http://www.w3.org/1999/xlink" fill-opacity="1" color-rendering="auto" color-interpolation="auto" text-rendering="auto" stroke="black" stroke-linecap="square" width="285" stroke-miterlimit="10" shape-rendering="auto" stroke-opacity="1" fill="black" stroke-dasharray="none" font-weight="normal" stroke-width="1" height="254" font-family="'Dialog'" font-style="normal" stroke-linejoin="miter" font-size="12px" stroke-dashoffset="0" image-rendering="auto">
  <!--Generated by ySVG 2.5-->
  <defs id="genericDefs"/>
  <g>
    <defs id="defs1">
      <clipPath clipPathUnits="userSpaceOnUse" id="clipPath1">
        <path d="M0 0 L285 0 L285 254 L0 254 L0 0 Z"/>
      </clipPath>
      <clipPath clipPathUnits="userSpaceOnUse" id="clipPath2">
        <path d="M111 74 L396 74 L396 328 L111 328 L111 74 Z"/>
      </clipPath>
    </defs>
    <g fill="rgb(255,204,0)" text-rendering="geometricPrecision" shape-rendering="geometricPrecision" transform="matrix(1,0,0,1,-111,-74)" stroke="rgb(255,204,0)">
      <circle r="15" clip-path="url(#clipPath2)" cx="273" cy="185" stroke="none"/>
    </g>
    <g text-rendering="geometricPrecision" stroke-miterlimit="1.45" shape-rendering="geometricPrecision" transform="matrix(1,0,0,1,-111,-74)" stroke-linecap="butt">
      <circle fill="none" r="15" clip-path="url(#clipPath2)" cx="273" cy="185"/>
      <text x="269.874" xml:space="preserve" y="189.1543" clip-path="url(#clipPath2)" font-family="sans-serif" stroke="none">s</text>
    </g>
    <g fill="rgb(255,204,0)" text-rendering="geometricPrecision" shape-rendering="geometricPrecision" transform="matrix(1,0,0,1,-111,-74)" stroke="rgb(255,204,0)">
      <circle r="15" clip-path="url(#clipPath2)" cx="227" cy="285" stroke="none"/>
    </g>
    <g text-rendering="geometricPrecision" stroke-miterlimit="1.45" shape-rendering="geometricPrecision" transform="matrix(1,0,0,1,-111,-74)" stroke-linecap="butt">
      <circle fill="none" r="15" clip-path="url(#clipPath2)" cx="227" cy="285"/>
      <text x="218.4893" xml:space="preserve" y="289.1543" clip-path="url(#clipPath2)" font-family="sans-serif" stroke="none">ret</text>
    </g>
    <g fill="rgb(255,204,0)" text-rendering="geometricPrecision" shape-rendering="geometricPrecision" transform="matrix(1,0,0,1,-111,-74)" stroke="rgb(255,204,0)">
      <circle r="15" clip-path="url(#clipPath2)" cx="127" cy="90" stroke="none"/>
    </g>
    <g text-rendering="geometricPrecision" stroke-miterlimit="1.45" shape-rendering="geometricPrecision" transform="matrix(1,0,0,1,-111,-74)" stroke-linecap="butt">
      <circle fill="none" r="15" clip-path="url(#clipPath2)" cx="127" cy="90"/>
      <text x="123.3232" xml:space="preserve" y="94.1543" clip-path="url(#clipPath2)" font-family="sans-serif" stroke="none">a</text>
    </g>
    <g fill="rgb(255,204,0)" text-rendering="geometricPrecision" shape-rendering="geometricPrecision" transform="matrix(1,0,0,1,-111,-74)" stroke="rgb(255,204,0)">
      <circle r="15" clip-path="url(#clipPath2)" cx="221" cy="90" stroke="none"/>
    </g>
    <g text-rendering="geometricPrecision" stroke-miterlimit="1.45" shape-rendering="geometricPrecision" transform="matrix(1,0,0,1,-111,-74)" stroke-linecap="butt">
      <circle fill="none" r="15" clip-path="url(#clipPath2)" cx="221" cy="90"/>
      <text x="217.1914" xml:space="preserve" y="94.1543" clip-path="url(#clipPath2)" font-family="sans-serif" stroke="none">b</text>
    </g>
    <g fill="rgb(255,204,0)" text-rendering="geometricPrecision" shape-rendering="geometricPrecision" transform="matrix(1,0,0,1,-111,-74)" stroke="rgb(255,204,0)">
      <circle r="15" clip-path="url(#clipPath2)" cx="178" cy="185" stroke="none"/>
    </g>
    <g text-rendering="geometricPrecision" stroke-miterlimit="1.45" shape-rendering="geometricPrecision" transform="matrix(1,0,0,1,-111,-74)" stroke-linecap="butt">
      <circle fill="none" r="15" clip-path="url(#clipPath2)" cx="178" cy="185"/>
      <text x="174.7012" xml:space="preserve" y="189.1543" clip-path="url(#clipPath2)" font-family="sans-serif" stroke="none">c</text>
    </g>
    <g fill="rgb(255,204,0)" text-rendering="geometricPrecision" shape-rendering="geometricPrecision" transform="matrix(1,0,0,1,-111,-74)" stroke="rgb(255,204,0)">
      <circle r="15" clip-path="url(#clipPath2)" cx="375" cy="185" stroke="none"/>
    </g>
    <g text-rendering="geometricPrecision" stroke-miterlimit="1.45" shape-rendering="geometricPrecision" transform="matrix(1,0,0,1,-111,-74)" stroke-linecap="butt">
      <circle fill="none" r="15" clip-path="url(#clipPath2)" cx="375" cy="185"/>
      <text x="373.333" xml:space="preserve" y="189.1543" clip-path="url(#clipPath2)" font-family="sans-serif" stroke="none">i</text>
      <path fill="none" d="M266.7314 198.6273 L236.6118 264.1047" clip-path="url(#clipPath2)"/>
      <path d="M233.2686 271.3726 L242.8259 262.5602 L237.0297 263.1962 L233.741 258.3812 Z" clip-path="url(#clipPath2)" stroke="none"/>
      <text x="254.4997" xml:space="preserve" y="240.1543" clip-path="url(#clipPath2)" font-family="sans-serif" stroke="none">ret *= s</text>
      <path fill="none" d="M213.1122 290.648 L212.8579 290.8578 L210.4157 293.8178 L208.5717 297.2151 L207.4063 300.9693 L207 305 L207.4063 309.0307 L208.5717 312.7849 L210.4157 316.1822 L212.8579 319.1422 L215.8178 321.5843 L219.2151 323.4283 L222.9693 324.5937 L227 325 L231.0307 324.5937 L234.7849 323.4283 L238.1822 321.5843 L241.1421 319.1422 L243.5843 316.1822 L245.4283 312.7849 L246.5937 309.0307 L247 305 L246.5937 300.9693 L245.4333 297.2312 L245.3764 297.1489" clip-path="url(#clipPath2)"/>
      <path d="M240.831 290.5657 L243.5346 303.2815 L245.9446 297.9718 L251.7637 297.5996 Z" clip-path="url(#clipPath2)" stroke="none"/>
      <text x="154.8027" xml:space="preserve" y="310.9043" clip-path="url(#clipPath2)" font-family="sans-serif" stroke="none">ret += 3</text>
      <text x="155.1514" xml:space="preserve" y="321.9043" clip-path="url(#clipPath2)" font-family="sans-serif" stroke="none">ret &amp;= 3</text>
      <path fill="none" d="M134.0949 103.216 L167.1212 164.7355" clip-path="url(#clipPath2)"/>
      <path d="M170.9051 171.784 L169.6345 158.8463 L166.6482 163.8544 L160.8239 163.5762 Z" clip-path="url(#clipPath2)" stroke="none"/>
      <path fill="none" d="M214.8146 103.6653 L187.4842 164.0465" clip-path="url(#clipPath2)"/>
      <path d="M184.1854 171.3347 L193.6888 162.4642 L187.8966 163.1355 L184.5785 158.3406 Z" clip-path="url(#clipPath2)" stroke="none"/>
      <text x="149.1295" xml:space="preserve" y="136.6543" clip-path="url(#clipPath2)" font-family="sans-serif" stroke="none">c = a * b</text>
      <path fill="none" d="M184.6002 198.4698 L216.8797 264.3462" clip-path="url(#clipPath2)"/>
      <path d="M220.3998 271.5302 L219.6096 258.5542 L216.4396 263.4482 L210.6296 262.9543 Z" clip-path="url(#clipPath2)" stroke="none"/>
      <text x="150.4192" xml:space="preserve" y="241.1543" clip-path="url(#clipPath2)" font-family="sans-serif" stroke="none">ret /= c</text>
      <path fill="none" d="M388.8878 179.352 L389.1422 179.1421 L391.5843 176.1822 L393.4283 172.7849 L394.5937 169.0307 L395 165 L394.5937 160.9693 L393.4283 157.2151 L391.5843 153.8178 L389.1422 150.8579 L386.1822 148.4157 L382.7849 146.5717 L379.0307 145.4063 L375 145 L370.9693 145.4063 L367.2151 146.5717 L363.8178 148.4157 L360.8578 150.8579 L358.4157 153.8178 L356.5717 157.2151 L355.4063 160.9693 L355 165 L355.4063 169.0307 L356.5667 172.7688 L356.6236 172.8511" clip-path="url(#clipPath2)"/>
      <path d="M361.169 179.4343 L358.4654 166.7186 L356.0554 172.0282 L350.2364 172.4004 Z" clip-path="url(#clipPath2)" stroke="none"/>
      <text x="363.2783" xml:space="preserve" y="143.4043" clip-path="url(#clipPath2)" font-family="sans-serif" stroke="none">++i</text>
      <path fill="none" d="M288 185 L352 185" clip-path="url(#clipPath2)"/>
      <path d="M360 185 L348 180 L351 185 L348 190 Z" clip-path="url(#clipPath2)" stroke="none"/>
      <text x="306.3652" xml:space="preserve" y="182.1543" clip-path="url(#clipPath2)" font-family="sans-serif" stroke="none">i &lt; s</text>
    </g>
  </g>
</svg>
