<?xml version="1.0" encoding="UTF-8"?><svg xmlns="http://www.w3.org/2000/svg" xmlns:xlink="http://www.w3.org/1999/xlink" fill-opacity="1" color-rendering="auto" color-interpolation="auto" text-rendering="auto" stroke="black" stroke-linecap="square" width="445" stroke-miterlimit="10" shape-rendering="auto" stroke-opacity="1" fill="black" stroke-dasharray="none" font-weight="normal" stroke-width="1" height="298" font-family="'Dialog'" font-style="normal" stroke-linejoin="miter" font-size="12px" stroke-dashoffset="0" image-rendering="auto">
  <!--Generated by ySVG 2.5-->
  <defs id="genericDefs"/>
  <g>
    <defs id="defs1">
      <clipPath clipPathUnits="userSpaceOnUse" id="clipPath1">
        <path d="M0 0 L445 0 L445 298 L0 298 L0 0 Z"/>
      </clipPath>
      <clipPath clipPathUnits="userSpaceOnUse" id="clipPath2">
        <path d="M-66 42 L379 42 L379 340 L-66 340 L-66 42 Z"/>
      </clipPath>
    </defs>
    <g text-rendering="geometricPrecision" stroke-miterlimit="1.45" shape-rendering="geometricPrecision" transform="matrix(1,0,0,1,66,-42)" stroke-linecap="butt">
      <circle fill="none" r="15" clip-path="url(#clipPath2)" cx="56" cy="58"/>
    </g>
    <g text-rendering="geometricPrecision" stroke-miterlimit="1.45" shape-rendering="geometricPrecision" font-family="sans-serif" transform="matrix(1,0,0,1,66,-42)" stroke-linecap="butt">
      <text x="52.3232" xml:space="preserve" y="62.1543" clip-path="url(#clipPath2)" stroke="none">a</text>
      <rect fill="none" x="47" width="76" height="21" y="117" clip-path="url(#clipPath2)"/>
      <text x="56.5322" xml:space="preserve" y="131.6543" clip-path="url(#clipPath2)" stroke="none">c = a + b</text>
      <circle fill="none" r="15" clip-path="url(#clipPath2)" cx="116" cy="58"/>
      <text x="112.1914" xml:space="preserve" y="62.1543" clip-path="url(#clipPath2)" stroke="none">b</text>
      <circle fill="none" r="15" clip-path="url(#clipPath2)" cx="85" cy="183"/>
      <text x="81.7012" xml:space="preserve" y="187.1543" clip-path="url(#clipPath2)" stroke="none">c</text>
      <rect fill="none" x="-24" width="76" height="21" y="228" clip-path="url(#clipPath2)"/>
      <text x="-8.6729" xml:space="preserve" y="242.6543" clip-path="url(#clipPath2)" stroke="none">ret /= c</text>
      <circle fill="none" r="15" clip-path="url(#clipPath2)" cx="244" cy="58"/>
      <text x="235.4893" xml:space="preserve" y="62.1543" clip-path="url(#clipPath2)" stroke="none">ret</text>
      <rect fill="none" x="209.9" width="76" height="21" y="240.5" clip-path="url(#clipPath2)"/>
      <text x="221.7027" xml:space="preserve" y="255.1543" clip-path="url(#clipPath2)" stroke="none">ret += 3</text>
      <rect fill="none" x="160" width="76" height="21" y="117" clip-path="url(#clipPath2)"/>
      <text x="172.1514" xml:space="preserve" y="131.6543" clip-path="url(#clipPath2)" stroke="none">ret &amp;= 3</text>
      <rect fill="none" x="302" width="76" height="21" y="240.5" clip-path="url(#clipPath2)"/>
      <text x="316.5215" xml:space="preserve" y="255.1543" clip-path="url(#clipPath2)" stroke="none">ret *= s</text>
      <circle fill="none" r="15" clip-path="url(#clipPath2)" cx="-27" cy="174"/>
      <text x="-28.667" xml:space="preserve" y="178.1543" clip-path="url(#clipPath2)" stroke="none">i</text>
      <rect fill="none" x="-65" width="76" height="21" y="108" clip-path="url(#clipPath2)"/>
      <text x="-38.7217" xml:space="preserve" y="122.6543" clip-path="url(#clipPath2)" stroke="none">++i</text>
      <circle fill="none" r="15" clip-path="url(#clipPath2)" cx="247.9" cy="183"/>
      <text x="239.3893" xml:space="preserve" y="187.1543" clip-path="url(#clipPath2)" stroke="none">ret</text>
      <circle fill="none" r="15" clip-path="url(#clipPath2)" cx="132.8" cy="324"/>
      <text x="124.2893" xml:space="preserve" y="328.1543" clip-path="url(#clipPath2)" stroke="none">ret</text>
      <circle fill="none" r="15" clip-path="url(#clipPath2)" cx="-27" cy="63"/>
      <text x="-28.667" xml:space="preserve" y="67.1543" clip-path="url(#clipPath2)" stroke="none">i</text>
      <circle fill="none" r="15" clip-path="url(#clipPath2)" cx="14" cy="324"/>
      <text x="5.4893" xml:space="preserve" y="328.1543" clip-path="url(#clipPath2)" stroke="none">ret</text>
      <rect fill="none" x="259.8" width="76" height="21" y="117" clip-path="url(#clipPath2)"/>
      <text x="276.4631" xml:space="preserve" y="131.6543" clip-path="url(#clipPath2)" stroke="none">&lt;nop&gt;</text>
      <rect fill="none" x="117.8" width="76" height="21" y="240.5" clip-path="url(#clipPath2)"/>
      <text x="144.5178" xml:space="preserve" y="255.1543" clip-path="url(#clipPath2)" stroke="none">nop</text>
      <circle fill="none" r="15" clip-path="url(#clipPath2)" cx="363" cy="183"/>
      <text x="359.874" xml:space="preserve" y="187.1543" clip-path="url(#clipPath2)" stroke="none">s</text>
      <path fill="none" d="M61.7763 71.8432 L77.538 109.617" clip-path="url(#clipPath2)"/>
      <path d="M80.6187 117 L80.6121 104 L77.1529 108.6941 L71.3833 107.8509 Z" clip-path="url(#clipPath2)" stroke="none"/>
      <path fill="none" d="M109.8896 71.699 L92.9423 109.6938" clip-path="url(#clipPath2)"/>
      <path d="M89.6835 117 L99.1381 108.0776 L93.3497 108.7806 L90.0054 104.004 Z" clip-path="url(#clipPath2)" stroke="none"/>
      <path fill="none" d="M85 138 L85 160" clip-path="url(#clipPath2)"/>
      <path d="M85 168 L90 156 L85 159 L80 156 Z" clip-path="url(#clipPath2)" stroke="none"/>
      <path fill="none" d="M73.1822 192.2379 L33.7353 223.0731" clip-path="url(#clipPath2)"/>
      <path d="M27.4324 228 L39.966 224.549 L34.5231 222.4573 L33.8074 216.6704 Z" clip-path="url(#clipPath2)" stroke="none"/>
      <path fill="none" d="M235.7211 70.5084 L209.3651 110.3289" clip-path="url(#clipPath2)"/>
      <path d="M204.9496 117 L215.7422 109.7529 L209.917 109.495 L207.4033 104.2337 Z" clip-path="url(#clipPath2)" stroke="none"/>
      <path fill="none" d="M-27 129 L-27 151" clip-path="url(#clipPath2)"/>
      <path d="M-27 159 L-22 147 L-27 150 L-32 147 Z" clip-path="url(#clipPath2)" stroke="none"/>
      <path fill="none" d="M207.4405 138 L232.5223 165.8966" clip-path="url(#clipPath2)"/>
      <path d="M237.8711 171.8456 L233.5661 159.5791 L231.8537 165.153 L226.1298 166.265 Z" clip-path="url(#clipPath2)" stroke="none"/>
      <path fill="none" d="M247.9 198 L247.9 236.5" clip-path="url(#clipPath2)"/>
    </g>
    <g stroke-linecap="butt" transform="matrix(1,0,0,1,66,-42)" fill-opacity="0" fill="rgb(0,0,0)" text-rendering="geometricPrecision" shape-rendering="geometricPrecision" stroke="rgb(0,0,0)" stroke-opacity="0" stroke-miterlimit="1.45">
      <path d="M247.9 244.5 C245.6909 244.5 243.9 242.7091 243.9 240.5 C243.9 238.2909 245.6909 236.5 247.9 236.5 C250.1091 236.5 251.9 238.2909 251.9 240.5 C251.9 242.7091 250.1091 244.5 247.9 244.5 Z" stroke="none" clip-path="url(#clipPath2)"/>
    </g>
    <g text-rendering="geometricPrecision" stroke-miterlimit="1.45" shape-rendering="geometricPrecision" transform="matrix(1,0,0,1,66,-42)" stroke-linecap="butt">
      <path fill="none" d="M247.9 244.5 C245.6909 244.5 243.9 242.7091 243.9 240.5 C243.9 238.2909 245.6909 236.5 247.9 236.5 C250.1091 236.5 251.9 238.2909 251.9 240.5 C251.9 242.7091 250.1091 244.5 247.9 244.5 Z" clip-path="url(#clipPath2)"/>
      <path fill="none" d="M259.9673 191.9096 L322.5607 238.1241" clip-path="url(#clipPath2)"/>
    </g>
    <g stroke-linecap="butt" transform="matrix(1,0,0,1,66,-42)" fill-opacity="0" fill="rgb(0,0,0)" text-rendering="geometricPrecision" shape-rendering="geometricPrecision" stroke="rgb(0,0,0)" stroke-opacity="0" stroke-miterlimit="1.45">
      <path d="M328.9966 242.8759 C327.6844 244.6531 325.18 245.0301 323.4028 243.7179 C321.6256 242.4058 321.2486 239.9013 322.5607 238.1241 C323.8729 236.3469 326.3773 235.9699 328.1546 237.282 C329.9318 238.5942 330.3088 241.0986 328.9966 242.8759 Z" stroke="none" clip-path="url(#clipPath2)"/>
    </g>
    <g text-rendering="geometricPrecision" stroke-miterlimit="1.45" shape-rendering="geometricPrecision" transform="matrix(1,0,0,1,66,-42)" stroke-linecap="butt">
      <path fill="none" d="M328.9966 242.8759 C327.6844 244.6531 325.18 245.0301 323.4028 243.7179 C321.6256 242.4058 321.2486 239.9013 322.5607 238.1241 C323.8729 236.3469 326.3773 235.9699 328.1546 237.282 C329.9318 238.5942 330.3088 241.0986 328.9966 242.8759 Z" clip-path="url(#clipPath2)"/>
      <path fill="none" d="M231.3445 261.5 L152.2229 311.6814" clip-path="url(#clipPath2)"/>
      <path d="M145.4671 315.9661 L158.2788 313.7614 L153.0674 311.1458 L152.9229 305.3166 Z" clip-path="url(#clipPath2)" stroke="none"/>
      <path fill="none" d="M310.1973 261.5 L154.493 316.3572" clip-path="url(#clipPath2)"/>
      <path d="M146.9476 319.0156 L159.9272 319.7439 L155.4362 316.0249 L156.6042 310.3121 Z" clip-path="url(#clipPath2)" stroke="none"/>
      <path fill="none" d="M120.6252 315.2379 L35.0827 253.6731" clip-path="url(#clipPath2)"/>
      <path d="M28.5895 249 L35.4086 260.068 L35.8943 254.2573 L41.25 251.9515 Z" clip-path="url(#clipPath2)" stroke="none"/>
      <path fill="none" d="M-27 78 L-27 100" clip-path="url(#clipPath2)"/>
      <path d="M-27 108 L-22 96 L-27 99 L-32 96 Z" clip-path="url(#clipPath2)" stroke="none"/>
      <path fill="none" d="M14 249 L14 301" clip-path="url(#clipPath2)"/>
      <path d="M14 309 L19 297 L14 300 L9 297 Z" clip-path="url(#clipPath2)" stroke="none"/>
      <path fill="none" d="M253.1819 69.8614 L287.2234 113.837" clip-path="url(#clipPath2)"/>
    </g>
    <g stroke-linecap="butt" transform="matrix(1,0,0,1,66,-42)" fill-opacity="0" fill="rgb(0,0,0)" text-rendering="geometricPrecision" shape-rendering="geometricPrecision" stroke="rgb(0,0,0)" stroke-opacity="0" stroke-miterlimit="1.45">
      <path d="M292.1205 120.163 C290.3736 121.5153 287.8612 121.1954 286.5089 119.4485 C285.1566 117.7016 285.4765 115.1892 287.2234 113.837 C288.9703 112.4847 291.4827 112.8046 292.835 114.5515 C294.1873 116.2984 293.8673 118.8108 292.1205 120.163 Z" stroke="none" clip-path="url(#clipPath2)"/>
    </g>
    <g text-rendering="geometricPrecision" stroke-miterlimit="1.45" shape-rendering="geometricPrecision" transform="matrix(1,0,0,1,66,-42)" stroke-linecap="butt">
      <path fill="none" d="M292.1205 120.163 C290.3736 121.5153 287.8612 121.1954 286.5089 119.4485 C285.1566 117.7016 285.4765 115.1892 287.2234 113.837 C288.9703 112.4847 291.4827 112.8046 292.835 114.5515 C294.1873 116.2984 293.8673 118.8108 292.1205 120.163 Z" clip-path="url(#clipPath2)"/>
      <path fill="none" d="M288.3595 138 L263.2777 165.8966" clip-path="url(#clipPath2)"/>
      <path d="M257.9289 171.8456 L269.6702 166.265 L263.9463 165.153 L262.2339 159.5791 Z" clip-path="url(#clipPath2)" stroke="none"/>
      <path fill="none" d="M235.8327 191.9096 L176.4572 235.7482" clip-path="url(#clipPath2)"/>
      <path d="M170.0213 240.5 L182.645 237.3947 L177.2617 235.1543 L176.7053 229.3499 Z" clip-path="url(#clipPath2)" stroke="none"/>
      <path fill="none" d="M152.4918 261.5 L139.7116 302.063" clip-path="url(#clipPath2)"/>
      <path d="M137.3076 309.6933 L145.6826 299.7505 L140.0121 301.1093 L136.1448 296.7454 Z" clip-path="url(#clipPath2)" stroke="none"/>
      <path fill="none" d="M358.1939 197.2092 L346.1147 232.9218" clip-path="url(#clipPath2)"/>
      <path d="M343.5515 240.5 L352.1328 230.7346 L346.4351 231.9745 L342.6599 227.5306 Z" clip-path="url(#clipPath2)" stroke="none"/>
    </g>
  </g>
</svg>
