<?xml version="1.0" encoding="UTF-8"?><svg xmlns="http://www.w3.org/2000/svg" xmlns:xlink="http://www.w3.org/1999/xlink" fill-opacity="1" color-rendering="auto" color-interpolation="auto" text-rendering="auto" stroke="black" stroke-linecap="square" width="537" stroke-miterlimit="10" shape-rendering="auto" stroke-opacity="1" fill="black" stroke-dasharray="none" font-weight="normal" stroke-width="1" height="286" font-family="'Dialog'" font-style="normal" stroke-linejoin="miter" font-size="12px" stroke-dashoffset="0" image-rendering="auto">
  <!--Generated by ySVG 2.5-->
  <defs id="genericDefs"/>
  <g>
    <defs id="defs1">
      <clipPath clipPathUnits="userSpaceOnUse" id="clipPath1">
        <path d="M0 0 L537 0 L537 286 L0 286 L0 0 Z"/>
      </clipPath>
      <clipPath clipPathUnits="userSpaceOnUse" id="clipPath2">
        <path d="M33 47 L570 47 L570 333 L33 333 L33 47 Z"/>
      </clipPath>
    </defs>
    <g text-rendering="geometricPrecision" stroke-miterlimit="1.45" shape-rendering="geometricPrecision" transform="matrix(1,0,0,1,-33,-47)" stroke-linecap="butt">
      <circle fill="none" r="15" clip-path="url(#clipPath2)" cx="127" cy="63"/>
    </g>
    <g text-rendering="geometricPrecision" stroke-miterlimit="1.45" shape-rendering="geometricPrecision" font-family="sans-serif" transform="matrix(1,0,0,1,-33,-47)" stroke-linecap="butt">
      <text x="123.3232" xml:space="preserve" y="67.1543" clip-path="url(#clipPath2)" stroke="none">a</text>
      <rect fill="none" x="118" width="76" height="21" y="122" clip-path="url(#clipPath2)"/>
      <text x="127.5322" xml:space="preserve" y="136.6543" clip-path="url(#clipPath2)" stroke="none">c = a + b</text>
      <circle fill="none" r="15" clip-path="url(#clipPath2)" cx="187" cy="63"/>
      <text x="183.1914" xml:space="preserve" y="67.1543" clip-path="url(#clipPath2)" stroke="none">b</text>
      <circle fill="none" r="15" clip-path="url(#clipPath2)" cx="49" cy="198"/>
      <text x="45.7012" xml:space="preserve" y="202.1543" clip-path="url(#clipPath2)" stroke="none">c</text>
      <circle fill="none" r="15" clip-path="url(#clipPath2)" cx="219" cy="188"/>
      <text x="210.4893" xml:space="preserve" y="192.1543" clip-path="url(#clipPath2)" stroke="none">ret</text>
      <rect fill="none" x="45" width="76" height="21" y="251.5" clip-path="url(#clipPath2)"/>
      <text x="60.3271" xml:space="preserve" y="266.1543" clip-path="url(#clipPath2)" stroke="none">ret /= c</text>
      <circle fill="none" r="15" clip-path="url(#clipPath2)" cx="84" cy="317"/>
      <text x="75.4893" xml:space="preserve" y="321.1543" clip-path="url(#clipPath2)" stroke="none">ret</text>
      <rect fill="none" x="135" width="76" height="21" y="249.5" clip-path="url(#clipPath2)"/>
      <text x="146.8027" xml:space="preserve" y="264.1543" clip-path="url(#clipPath2)" stroke="none">ret += 3</text>
      <rect fill="none" x="225" width="76" height="21" y="249.5" clip-path="url(#clipPath2)"/>
      <text x="237.1514" xml:space="preserve" y="264.1543" clip-path="url(#clipPath2)" stroke="none">ret &amp;= 3</text>
      <rect fill="none" x="321" width="76" height="21" y="249.5" clip-path="url(#clipPath2)"/>
      <text x="335.5215" xml:space="preserve" y="264.1543" clip-path="url(#clipPath2)" stroke="none">ret *= s</text>
      <circle fill="none" r="15" clip-path="url(#clipPath2)" cx="359" cy="196"/>
      <text x="355.874" xml:space="preserve" y="200.1543" clip-path="url(#clipPath2)" stroke="none">s</text>
      <circle fill="none" r="15" clip-path="url(#clipPath2)" cx="451" cy="196"/>
      <text x="449.333" xml:space="preserve" y="200.1543" clip-path="url(#clipPath2)" stroke="none">i</text>
      <rect fill="none" x="407" width="76" height="21" y="249.5" clip-path="url(#clipPath2)"/>
      <text x="431.3652" xml:space="preserve" y="264.1543" clip-path="url(#clipPath2)" stroke="none">i &lt; s</text>
      <rect fill="none" x="493" width="76" height="21" y="251.5" clip-path="url(#clipPath2)"/>
      <text x="519.2783" xml:space="preserve" y="266.1543" clip-path="url(#clipPath2)" stroke="none">++i</text>
      <circle fill="none" r="15" clip-path="url(#clipPath2)" cx="173" cy="317"/>
      <text x="164.4893" xml:space="preserve" y="321.1543" clip-path="url(#clipPath2)" stroke="none">ret</text>
      <circle fill="none" r="15" clip-path="url(#clipPath2)" cx="263" cy="317"/>
      <text x="254.4893" xml:space="preserve" y="321.1543" clip-path="url(#clipPath2)" stroke="none">ret</text>
      <circle fill="none" r="15" clip-path="url(#clipPath2)" cx="531" cy="314.5"/>
      <text x="529.333" xml:space="preserve" y="318.6543" clip-path="url(#clipPath2)" stroke="none">i</text>
      <circle fill="none" r="15" clip-path="url(#clipPath2)" cx="361" cy="317"/>
      <text x="352.4893" xml:space="preserve" y="321.1543" clip-path="url(#clipPath2)" stroke="none">ret</text>
      <circle fill="none" r="15" clip-path="url(#clipPath2)" cx="445" cy="314.5"/>
      <text x="428.6699" xml:space="preserve" y="318.6543" clip-path="url(#clipPath2)" stroke="none">&lt;br&gt;</text>
      <path fill="none" d="M132.7763 76.8432 L148.538 114.617" clip-path="url(#clipPath2)"/>
      <path d="M151.6187 122 L151.6121 109 L148.1529 113.6941 L142.3833 112.8509 Z" clip-path="url(#clipPath2)" stroke="none"/>
      <path fill="none" d="M180.8896 76.699 L163.9423 114.6938" clip-path="url(#clipPath2)"/>
      <path d="M160.6835 122 L170.1381 113.0776 L164.3497 113.7806 L161.0054 109.004 Z" clip-path="url(#clipPath2)" stroke="none"/>
      <path fill="none" d="M138.8473 143 L68.6164 185.9918" clip-path="url(#clipPath2)"/>
      <path d="M61.7933 190.1686 L74.6384 188.1679 L69.4693 185.4697 L69.4175 179.639 Z" clip-path="url(#clipPath2)" stroke="none"/>
      <path fill="none" d="M56.0373 211.2467 L73.6686 244.4351" clip-path="url(#clipPath2)"/>
      <path d="M77.4219 251.5 L76.2076 238.5568 L73.1995 243.552 L67.3764 243.2484 Z" clip-path="url(#clipPath2)" stroke="none"/>
      <path fill="none" d="M205.8242 195.1692 L109.3244 247.6764" clip-path="url(#clipPath2)"/>
      <path d="M102.2973 251.5 L115.2277 250.1566 L110.2028 247.1985 L110.4482 241.3727 Z" clip-path="url(#clipPath2)" stroke="none"/>
      <path fill="none" d="M83.1909 272.5 L83.5819 294.0038" clip-path="url(#clipPath2)"/>
      <path d="M83.7273 302.0025 L88.5083 289.9136 L83.5637 293.004 L78.51 290.0954 Z" clip-path="url(#clipPath2)" stroke="none"/>
      <path fill="none" d="M210.9242 200.6404 L184.0154 242.7584" clip-path="url(#clipPath2)"/>
      <path d="M179.7083 249.5 L190.3825 242.0796 L184.5538 241.9157 L181.9555 236.6957 Z" clip-path="url(#clipPath2)" stroke="none"/>
      <path fill="none" d="M226.8217 200.7992 L252.4117 242.6738" clip-path="url(#clipPath2)"/>
      <path d="M256.5833 249.5 L254.5923 236.6534 L251.8903 241.8205 L246.0595 241.8679 Z" clip-path="url(#clipPath2)" stroke="none"/>
      <path fill="none" d="M232.3393 194.8602 L331.469 245.8412" clip-path="url(#clipPath2)"/>
      <path d="M338.5833 249.5 L330.1986 239.5654 L330.5797 245.3839 L325.6252 248.4583 Z" clip-path="url(#clipPath2)" stroke="none"/>
      <path fill="none" d="M359 211 L359 241.5" clip-path="url(#clipPath2)"/>
      <path d="M359 249.5 L364 237.5 L359 240.5 L354 237.5 Z" clip-path="url(#clipPath2)" stroke="none"/>
      <path fill="none" d="M371.0335 204.9552 L424.4727 244.7239" clip-path="url(#clipPath2)"/>
      <path d="M430.8906 249.5 L424.2489 238.3247 L423.6705 244.1269 L418.2788 246.347 Z" clip-path="url(#clipPath2)" stroke="none"/>
      <path fill="none" d="M449.5999 210.9345 L446.7311 241.5349" clip-path="url(#clipPath2)"/>
      <path d="M445.9844 249.5 L452.0826 238.0191 L446.8245 240.5393 L442.1263 237.0857 Z" clip-path="url(#clipPath2)" stroke="none"/>
      <path fill="none" d="M462.5706 205.5457 L512.1017 246.4089" clip-path="url(#clipPath2)"/>
      <path d="M518.2727 251.5 L512.1982 240.0065 L511.3304 245.7726 L505.8343 247.7203 Z" clip-path="url(#clipPath2)" stroke="none"/>
      <path fill="none" d="M173 270.5 L173 294" clip-path="url(#clipPath2)"/>
      <path d="M173 302 L178 290 L173 293 L168 290 Z" clip-path="url(#clipPath2)" stroke="none"/>
      <path fill="none" d="M263 270.5 L263 294" clip-path="url(#clipPath2)"/>
      <path d="M263 302 L268 290 L263 293 L258 290 Z" clip-path="url(#clipPath2)" stroke="none"/>
      <path fill="none" d="M531 272.5 L531 291.5" clip-path="url(#clipPath2)"/>
      <path d="M531 299.5 L536 287.5 L531 290.5 L526 287.5 Z" clip-path="url(#clipPath2)" stroke="none"/>
      <path fill="none" d="M359.3684 270.5 L360.1935 294.0142" clip-path="url(#clipPath2)"/>
      <path d="M360.474 302.0092 L365.0501 289.8413 L360.1584 293.0148 L355.0563 290.192 Z" clip-path="url(#clipPath2)" stroke="none"/>
      <path fill="none" d="M445 270.5 L445 291.5" clip-path="url(#clipPath2)"/>
      <path d="M445 299.5 L450 287.5 L445 290.5 L440 287.5 Z" clip-path="url(#clipPath2)" stroke="none"/>
    </g>
  </g>
</svg>
