<?xml version="1.0" encoding="UTF-8"?><svg xmlns="http://www.w3.org/2000/svg" xmlns:xlink="http://www.w3.org/1999/xlink" fill-opacity="1" color-rendering="auto" color-interpolation="auto" text-rendering="auto" stroke="black" stroke-linecap="square" width="446" stroke-miterlimit="10" shape-rendering="auto" stroke-opacity="1" fill="black" stroke-dasharray="none" font-weight="normal" stroke-width="1" height="244" font-family="'Dialog'" font-style="normal" stroke-linejoin="miter" font-size="12px" stroke-dashoffset="0" image-rendering="auto">
  <!--Generated by ySVG 2.5-->
  <defs id="genericDefs"/>
  <g>
    <defs id="defs1">
      <clipPath clipPathUnits="userSpaceOnUse" id="clipPath1">
        <path d="M0 0 L446 0 L446 244 L0 244 L0 0 Z"/>
      </clipPath>
      <clipPath clipPathUnits="userSpaceOnUse" id="clipPath2">
        <path d="M204 101 L650 101 L650 345 L204 345 L204 101 Z"/>
      </clipPath>
    </defs>
    <g fill="rgb(255,204,0)" text-rendering="geometricPrecision" shape-rendering="geometricPrecision" transform="matrix(1,0,0,1,-204,-101)" stroke="rgb(255,204,0)">
      <circle r="15" clip-path="url(#clipPath2)" cx="220" cy="135" stroke="none"/>
    </g>
    <g text-rendering="geometricPrecision" stroke-miterlimit="1.45" shape-rendering="geometricPrecision" transform="matrix(1,0,0,1,-204,-101)" stroke-linecap="butt">
      <circle fill="none" r="15" clip-path="url(#clipPath2)" cx="220" cy="135"/>
      <text x="216.3232" xml:space="preserve" y="139.1543" clip-path="url(#clipPath2)" font-family="sans-serif" stroke="none">a</text>
    </g>
    <g fill="rgb(255,204,0)" text-rendering="geometricPrecision" shape-rendering="geometricPrecision" transform="matrix(1,0,0,1,-204,-101)" stroke="rgb(255,204,0)">
      <circle r="15" clip-path="url(#clipPath2)" cx="293" cy="130" stroke="none"/>
    </g>
    <g text-rendering="geometricPrecision" stroke-miterlimit="1.45" shape-rendering="geometricPrecision" transform="matrix(1,0,0,1,-204,-101)" stroke-linecap="butt">
      <circle fill="none" r="15" clip-path="url(#clipPath2)" cx="293" cy="130"/>
      <text x="289.1914" xml:space="preserve" y="134.1543" clip-path="url(#clipPath2)" font-family="sans-serif" stroke="none">b</text>
    </g>
    <g fill="rgb(255,204,0)" text-rendering="geometricPrecision" shape-rendering="geometricPrecision" transform="matrix(1,0,0,1,-204,-101)" stroke="rgb(255,204,0)">
      <circle r="15" clip-path="url(#clipPath2)" cx="268" cy="216" stroke="none"/>
    </g>
    <g text-rendering="geometricPrecision" stroke-miterlimit="1.45" shape-rendering="geometricPrecision" transform="matrix(1,0,0,1,-204,-101)" stroke-linecap="butt">
      <circle fill="none" r="15" clip-path="url(#clipPath2)" cx="268" cy="216"/>
      <text x="264.7012" xml:space="preserve" y="220.1543" clip-path="url(#clipPath2)" font-family="sans-serif" stroke="none">c</text>
    </g>
    <g fill="rgb(255,204,0)" text-rendering="geometricPrecision" shape-rendering="geometricPrecision" transform="matrix(1,0,0,1,-204,-101)" stroke="rgb(255,204,0)">
      <circle r="15" clip-path="url(#clipPath2)" cx="228" cy="328" stroke="none"/>
    </g>
    <g text-rendering="geometricPrecision" stroke-miterlimit="1.45" shape-rendering="geometricPrecision" transform="matrix(1,0,0,1,-204,-101)" stroke-linecap="butt">
      <circle fill="none" r="15" clip-path="url(#clipPath2)" cx="228" cy="328"/>
      <text x="219.4893" xml:space="preserve" y="332.1543" clip-path="url(#clipPath2)" font-family="sans-serif" stroke="none">ret</text>
    </g>
    <g fill="rgb(255,204,0)" text-rendering="geometricPrecision" shape-rendering="geometricPrecision" transform="matrix(1,0,0,1,-204,-101)" stroke="rgb(255,204,0)">
      <circle r="15" clip-path="url(#clipPath2)" cx="367" cy="319" stroke="none"/>
    </g>
    <g text-rendering="geometricPrecision" stroke-miterlimit="1.45" shape-rendering="geometricPrecision" transform="matrix(1,0,0,1,-204,-101)" stroke-linecap="butt">
      <circle fill="none" r="15" clip-path="url(#clipPath2)" cx="367" cy="319"/>
      <text x="358.4893" xml:space="preserve" y="323.1543" clip-path="url(#clipPath2)" font-family="sans-serif" stroke="none">ret</text>
    </g>
    <g fill="rgb(255,204,0)" text-rendering="geometricPrecision" shape-rendering="geometricPrecision" transform="matrix(1,0,0,1,-204,-101)" stroke="rgb(255,204,0)">
      <circle r="15" clip-path="url(#clipPath2)" cx="439" cy="221" stroke="none"/>
    </g>
    <g text-rendering="geometricPrecision" stroke-miterlimit="1.45" shape-rendering="geometricPrecision" transform="matrix(1,0,0,1,-204,-101)" stroke-linecap="butt">
      <circle fill="none" r="15" clip-path="url(#clipPath2)" cx="439" cy="221"/>
      <text x="430.4893" xml:space="preserve" y="225.1543" clip-path="url(#clipPath2)" font-family="sans-serif" stroke="none">ret</text>
    </g>
    <g fill="rgb(255,204,0)" text-rendering="geometricPrecision" shape-rendering="geometricPrecision" transform="matrix(1,0,0,1,-204,-101)" stroke="rgb(255,204,0)">
      <circle r="15" clip-path="url(#clipPath2)" cx="447" cy="117" stroke="none"/>
    </g>
    <g text-rendering="geometricPrecision" stroke-miterlimit="1.45" shape-rendering="geometricPrecision" transform="matrix(1,0,0,1,-204,-101)" stroke-linecap="butt">
      <circle fill="none" r="15" clip-path="url(#clipPath2)" cx="447" cy="117"/>
      <text x="438.4893" xml:space="preserve" y="121.1543" clip-path="url(#clipPath2)" font-family="sans-serif" stroke="none">ret</text>
    </g>
    <g fill="rgb(255,204,0)" text-rendering="geometricPrecision" shape-rendering="geometricPrecision" transform="matrix(1,0,0,1,-204,-101)" stroke="rgb(255,204,0)">
      <circle r="15" clip-path="url(#clipPath2)" cx="629" cy="230" stroke="none"/>
    </g>
    <g text-rendering="geometricPrecision" stroke-miterlimit="1.45" shape-rendering="geometricPrecision" transform="matrix(1,0,0,1,-204,-101)" stroke-linecap="butt">
      <circle fill="none" r="15" clip-path="url(#clipPath2)" cx="629" cy="230"/>
      <text x="627.333" xml:space="preserve" y="234.1543" clip-path="url(#clipPath2)" font-family="sans-serif" stroke="none">i</text>
    </g>
    <g fill="rgb(255,204,0)" text-rendering="geometricPrecision" shape-rendering="geometricPrecision" transform="matrix(1,0,0,1,-204,-101)" stroke="rgb(255,204,0)">
      <circle r="15" clip-path="url(#clipPath2)" cx="514" cy="230" stroke="none"/>
    </g>
    <g text-rendering="geometricPrecision" stroke-miterlimit="1.45" shape-rendering="geometricPrecision" transform="matrix(1,0,0,1,-204,-101)" stroke-linecap="butt">
      <circle fill="none" r="15" clip-path="url(#clipPath2)" cx="514" cy="230"/>
      <text x="510.874" xml:space="preserve" y="234.1543" clip-path="url(#clipPath2)" font-family="sans-serif" stroke="none">s</text>
      <path fill="none" d="M227.647 147.9044 L256.2745 196.2133" clip-path="url(#clipPath2)"/>
      <path d="M260.353 203.0956 L258.5368 190.2231 L255.7647 195.353 L249.9339 195.3211 Z" clip-path="url(#clipPath2)" stroke="none"/>
      <text x="234.1679" xml:space="preserve" y="185.1984" clip-path="url(#clipPath2)" font-family="sans-serif" stroke="none">c = a + b</text>
      <path fill="none" d="M288.8129 144.4037 L274.4203 193.9143" clip-path="url(#clipPath2)"/>
      <path d="M272.1871 201.5963 L280.3381 191.469 L274.6994 192.954 L270.7356 188.6775 Z" clip-path="url(#clipPath2)" stroke="none"/>
      <path fill="none" d="M262.955 230.1261 L235.7357 306.3399" clip-path="url(#clipPath2)"/>
      <path d="M233.045 313.8739 L241.7898 304.2546 L236.0721 305.3982 L232.3724 300.8913 Z" clip-path="url(#clipPath2)" stroke="none"/>
      <text x="252.4713" xml:space="preserve" y="306.1543" clip-path="url(#clipPath2)" font-family="sans-serif" stroke="none">ret /= c</text>
      <path fill="none" d="M352.0313 319.9692 L250.9519 326.5139" clip-path="url(#clipPath2)"/>
      <path d="M242.9686 327.0308 L255.2666 331.245 L251.9498 326.4493 L254.6205 321.2659 Z" clip-path="url(#clipPath2)" stroke="none"/>
      <path fill="none" d="M425.5049 227.4885 L424.0833 228.1759 L416.7812 231.7812 L409.6667 235.4074 L402.8021 239.0613 L396.25 242.75 L390.0729 246.4803 L384.3333 250.2593 L379.0938 254.0938 L374.4167 257.9908 L370.3646 261.9572 L367 266 L364.3646 270.1238 L362.4167 274.3241 L361.0938 278.5938 L360.3333 282.9259 L360.0729 287.3137 L360.25 291.75 L360.8021 296.228 L360.9237 296.863 L360.9476 296.9601" clip-path="url(#clipPath2)"/>
      <path d="M362.6545 304.7759 L364.9789 291.9854 L360.7342 295.9831 L355.2092 294.1191 Z" clip-path="url(#clipPath2)" stroke="none"/>
      <path fill="none" stroke-dasharray="6,2" d="M430.1189 233.0882 L380.6178 300.4647" clip-path="url(#clipPath2)"/>
      <path stroke-dasharray="6,2" d="M375.8811 306.9118 L387.0155 300.2016 L381.2098 299.6588 L378.9567 294.2808 Z" clip-path="url(#clipPath2)" stroke="none"/>
      <text x="376.1261" xml:space="preserve" y="278.2395" clip-path="url(#clipPath2)" font-family="sans-serif" stroke="none">ret += 3</text>
      <path fill="none" stroke-dasharray="6,2" d="M444.8784 234.7614 L447.118 240.0648 L450.9297 249.4062 L454.4445 258.5185 L457.5634 267.3252 L460.1875 275.75 L462.2179 283.7164 L463.5555 291.1481 L464.1016 297.9688 L463.757 304.1019 L462.4227 309.4711 L460 314 L456.4227 317.6377 L451.757 320.4352 L446.1016 322.4688 L439.5555 323.8148 L432.2179 324.5498 L424.1875 324.75 L415.5634 324.4919 L406.4445 323.8518 L396.9297 322.9062 L389.7745 322.0495 L389.6754 322.0364" clip-path="url(#clipPath2)"/>
      <path stroke-dasharray="6,2" d="M381.7404 321.0187 L393.0069 327.5046 L390.6673 322.1636 L394.279 317.5858 Z" clip-path="url(#clipPath2)" stroke="none"/>
      <text x="435.2846" xml:space="preserve" y="332.4504" clip-path="url(#clipPath2)" font-family="sans-serif" stroke="none">ret *= s</text>
      <path fill="none" d="M432.4961 120.7036 L431.3827 121.0469 L427.5912 122.4354 L423.875 124.075 L420.249 126.016 L416.7284 128.3086 L413.3281 131.0031 L410.0633 134.1497 L406.9489 137.7986 L404 142 L401.2346 146.7777 L398.6821 152.0494 L396.375 157.7063 L394.3457 163.6395 L392.6266 169.7404 L391.25 175.9 L390.2484 182.0096 L389.6543 187.9605 L389.5 193.6437 L389.8179 198.9506 L390.6404 203.7723 L392 208 L393.9157 211.5528 L396.3534 214.4614 L399.2656 216.7844 L402.6049 218.5802 L406.3239 219.9076 L410.375 220.825 L414.7108 221.391 L416.0131 221.4688 L416.1131 221.4696" clip-path="url(#clipPath2)"/>
      <path d="M424.1096 221.7058 L412.2625 216.3537 L415.1136 221.4401 L411.9673 226.3494 Z" clip-path="url(#clipPath2)" stroke="none"/>
      <text x="368.6121" xml:space="preserve" y="164.8358" clip-path="url(#clipPath2)" font-family="sans-serif" stroke="none">ret &amp;= 3</text>
      <path fill="none" stroke-dasharray="6,2" d="M459.2353 125.7169 L461.0547 127.0625 L465.4074 130.4815 L469.4754 133.956 L473.1875 137.5 L476.4725 141.1273 L479.2593 144.8519 L481.4766 148.6875 L483.0533 152.6481 L483.9181 156.7477 L484 161 L483.2514 165.4144 L481.7199 169.9815 L479.4766 174.6875 L476.5926 179.5185 L473.1392 184.4606 L469.1875 189.5 L464.8087 194.6227 L460.0741 199.8148 L455.2986 204.8075 L455.2282 204.8786" clip-path="url(#clipPath2)"/>
      <path stroke-dasharray="6,2" d="M449.6045 210.5684 L461.5962 205.5486 L455.9312 204.1674 L454.484 198.5189 Z" clip-path="url(#clipPath2)" stroke="none"/>
      <path fill="none" d="M642.8878 224.352 L643.1422 224.1421 L645.5843 221.1822 L647.4283 217.7849 L648.5937 214.0307 L649 210 L648.5937 205.9693 L647.4283 202.2151 L645.5843 198.8178 L643.1422 195.8579 L640.1822 193.4157 L636.7849 191.5717 L633.0307 190.4063 L629 190 L624.9693 190.4063 L621.2151 191.5717 L617.8178 193.4157 L614.8578 195.8579 L612.4157 198.8178 L610.5717 202.2151 L609.4063 205.9693 L609 210 L609.4063 214.0307 L610.5667 217.7688 L610.6236 217.8511" clip-path="url(#clipPath2)"/>
      <path d="M615.1691 224.4343 L612.4654 211.7186 L610.0554 217.0282 L604.2363 217.4004 Z" clip-path="url(#clipPath2)" stroke="none"/>
      <text x="620.2783" xml:space="preserve" y="182.4043" clip-path="url(#clipPath2)" font-family="sans-serif" stroke="none">++i</text>
      <path fill="none" d="M520.2323 243.6823 L520.3438 243.9375 L522.2444 248.6395 L523.9618 253.3897 L525.45 258.2 L526.6632 263.0826 L527.5555 268.0494 L528.0812 273.1125 L528.1945 278.2839 L527.8493 283.5758 L527 289 L525.6095 294.5532 L523.6759 300.1697 L521.2062 305.7687 L518.2074 311.2691 L514.6863 316.5899 L510.65 321.65 L506.1053 326.3684 L501.0593 330.6642 L495.5187 334.4562 L489.4908 337.6636 L482.9822 340.2052 L476 342 L468.5565 342.9921 L460.6852 343.2253 L452.425 342.7687 L443.8148 341.6913 L434.8935 340.0621 L425.7 337.95 L416.2731 335.424 L406.6519 332.5531 L396.875 329.4062 L388.7344 326.6467 L388.64 326.6136" clip-path="url(#clipPath2)"/>
      <path d="M381.0834 323.9873 L390.7769 332.6497 L389.5846 326.9419 L394.0598 323.2039 Z" clip-path="url(#clipPath2)" stroke="none"/>
      <path fill="none" d="M529 230 L606 230" clip-path="url(#clipPath2)"/>
      <path d="M614 230 L602 225 L605 230 L602 235 Z" clip-path="url(#clipPath2)" stroke="none"/>
      <text x="555.8652" xml:space="preserve" y="227.1543" clip-path="url(#clipPath2)" font-family="sans-serif" stroke="none">i &lt; s</text>
    </g>
  </g>
</svg>
