<?xml version="1.0" encoding="UTF-8" standalone="no"?>
<!DOCTYPE svg PUBLIC "-//W3C//DTD SVG 1.1//EN"
 "http://www.w3.org/Graphics/SVG/1.1/DTD/svg11.dtd">
<!-- Generated by graphviz version 2.40.1 (20161225.0304)
 -->
<!-- Title: G Pages: 1 -->
<svg width="1108pt" height="620pt"
 viewBox="0.00 0.00 1108.00 620.00" xmlns="http://www.w3.org/2000/svg" xmlns:xlink="http://www.w3.org/1999/xlink">
<g id="graph0" class="graph" transform="scale(1 1) rotate(0) translate(4 616)">
<title>G</title>
<polygon fill="#ffffff" stroke="transparent" points="-4,4 -4,-616 1104,-616 1104,4 -4,4"/>
<!-- ret_1 -->
<g id="node1" class="node">
<title>ret_1</title>
<ellipse fill="none" stroke="#000000" cx="107.5" cy="-594" rx="28.6953" ry="18"/>
<text text-anchor="middle" x="107.5" y="-590.3" font-family="Times,serif" font-size="14.00" fill="#000000">ret_1</text>
</g>
<!-- 0x1ca5ac0: &#160;&#160;%14 = and i32 %13, 3 -->
<g id="node12" class="node">
<title>0x1ca5ac0: &#160;&#160;%14 = and i32 %13, 3</title>
<polygon fill="none" stroke="#000000" points="215,-540 0,-540 0,-504 215,-504 215,-540"/>
<text text-anchor="middle" x="107.5" y="-518.3" font-family="Times,serif" font-size="14.00" fill="#000000">0x1ca5ac0: &#160;&#160;%14 = and i32 %13, 3</text>
</g>
<!-- ret_1&#45;&gt;0x1ca5ac0: &#160;&#160;%14 = and i32 %13, 3 -->
<g id="edge7" class="edge">
<title>ret_1&#45;&gt;0x1ca5ac0: &#160;&#160;%14 = and i32 %13, 3</title>
<path fill="none" stroke="#000000" d="M107.5,-575.8314C107.5,-568.131 107.5,-558.9743 107.5,-550.4166"/>
<polygon fill="#000000" stroke="#000000" points="107.5,-540.4133 112.0001,-550.4132 107.5,-545.4133 107.5001,-550.4133 107.5001,-550.4133 107.5001,-550.4133 107.5,-545.4133 103.0001,-550.4133 107.5,-540.4133 107.5,-540.4133"/>
</g>
<!-- ret_2 -->
<g id="node2" class="node">
<title>ret_2</title>
<ellipse fill="none" stroke="#000000" cx="147.5" cy="-450" rx="28.6953" ry="18"/>
<text text-anchor="middle" x="147.5" y="-446.3" font-family="Times,serif" font-size="14.00" fill="#000000">ret_2</text>
</g>
<!-- 0x1ca5de0: &#160;&#160;%19 = add nsw i32 %18, 3 -->
<g id="node13" class="node">
<title>0x1ca5de0: &#160;&#160;%19 = add nsw i32 %18, 3</title>
<polygon fill="none" stroke="#000000" points="296,-396 55,-396 55,-360 296,-360 296,-396"/>
<text text-anchor="middle" x="175.5" y="-374.3" font-family="Times,serif" font-size="14.00" fill="#000000">0x1ca5de0: &#160;&#160;%19 = add nsw i32 %18, 3</text>
</g>
<!-- ret_2&#45;&gt;0x1ca5de0: &#160;&#160;%19 = add nsw i32 %18, 3 -->
<g id="edge10" class="edge">
<title>ret_2&#45;&gt;0x1ca5de0: &#160;&#160;%19 = add nsw i32 %18, 3</title>
<path fill="none" stroke="#000000" d="M154.4214,-432.2022C157.7615,-423.6134 161.8311,-413.1486 165.5005,-403.7131"/>
<ellipse fill="none" stroke="#000000" cx="167.014" cy="-399.8211" rx="4" ry="4"/>
</g>
<!-- ret_3 -->
<g id="node3" class="node">
<title>ret_3</title>
<ellipse fill="none" stroke="#000000" cx="175.5" cy="-306" rx="28.6953" ry="18"/>
<text text-anchor="middle" x="175.5" y="-302.3" font-family="Times,serif" font-size="14.00" fill="#000000">ret_3</text>
</g>
<!-- 0x1ca6000: &#160;&#160;%23 = mul nsw i32 %22, %21 -->
<g id="node14" class="node">
<title>0x1ca6000: &#160;&#160;%23 = mul nsw i32 %22, %21</title>
<polygon fill="none" stroke="#000000" points="344,-252 81,-252 81,-216 344,-216 344,-252"/>
<text text-anchor="middle" x="212.5" y="-230.3" font-family="Times,serif" font-size="14.00" fill="#000000">0x1ca6000: &#160;&#160;%23 = mul nsw i32 %22, %21</text>
</g>
<!-- ret_3&#45;&gt;0x1ca6000: &#160;&#160;%23 = mul nsw i32 %22, %21 -->
<g id="edge13" class="edge">
<title>ret_3&#45;&gt;0x1ca6000: &#160;&#160;%23 = mul nsw i32 %22, %21</title>
<path fill="none" stroke="#000000" d="M184.4567,-288.5708C188.9901,-279.749 194.5764,-268.8784 199.5667,-259.1674"/>
<ellipse fill="none" stroke="#000000" cx="201.4111" cy="-255.5783" rx="4" ry="4"/>
</g>
<!-- ret_4 -->
<g id="node4" class="node">
<title>ret_4</title>
<ellipse fill="none" stroke="#000000" cx="262.5" cy="-162" rx="28.6953" ry="18"/>
<text text-anchor="middle" x="262.5" y="-158.3" font-family="Times,serif" font-size="14.00" fill="#000000">ret_4</text>
</g>
<!-- 0x1ca5530: &#160;&#160;%32 = sdiv i32 %30, %31 -->
<g id="node16" class="node">
<title>0x1ca5530: &#160;&#160;%32 = sdiv i32 %30, %31</title>
<polygon fill="none" stroke="#000000" points="418.5,-108 180.5,-108 180.5,-72 418.5,-72 418.5,-108"/>
<text text-anchor="middle" x="299.5" y="-86.3" font-family="Times,serif" font-size="14.00" fill="#000000">0x1ca5530: &#160;&#160;%32 = sdiv i32 %30, %31</text>
</g>
<!-- ret_4&#45;&gt;0x1ca5530: &#160;&#160;%32 = sdiv i32 %30, %31 -->
<g id="edge19" class="edge">
<title>ret_4&#45;&gt;0x1ca5530: &#160;&#160;%32 = sdiv i32 %30, %31</title>
<path fill="none" stroke="#000000" d="M271.4567,-144.5708C275.9901,-135.749 281.5764,-124.8784 286.5667,-115.1674"/>
<ellipse fill="none" stroke="#000000" cx="288.4111" cy="-111.5783" rx="4" ry="4"/>
</g>
<!-- a_1 -->
<g id="node5" class="node">
<title>a_1</title>
<ellipse fill="none" stroke="#000000" cx="678.5" cy="-306" rx="27" ry="18"/>
<text text-anchor="middle" x="678.5" y="-302.3" font-family="Times,serif" font-size="14.00" fill="#000000">a_1</text>
</g>
<!-- 0x1ca5310: &#160;&#160;%3 = mul nsw i32 %1, %2 -->
<g id="node10" class="node">
<title>0x1ca5310: &#160;&#160;%3 = mul nsw i32 %1, %2</title>
<polygon fill="none" stroke="#000000" points="604.5,-252 362.5,-252 362.5,-216 604.5,-216 604.5,-252"/>
<text text-anchor="middle" x="483.5" y="-230.3" font-family="Times,serif" font-size="14.00" fill="#000000">0x1ca5310: &#160;&#160;%3 = mul nsw i32 %1, %2</text>
</g>
<!-- a_1&#45;&gt;0x1ca5310: &#160;&#160;%3 = mul nsw i32 %1, %2 -->
<g id="edge1" class="edge">
<title>a_1&#45;&gt;0x1ca5310: &#160;&#160;%3 = mul nsw i32 %1, %2</title>
<path fill="none" stroke="#000000" d="M654.5892,-297.1714C626.7685,-286.8992 579.8368,-269.5705 542.1573,-255.6581"/>
<polygon fill="#000000" stroke="#000000" points="532.2979,-252.0177 543.2376,-251.2601 536.9884,-253.7496 541.6789,-255.4815 541.6789,-255.4815 541.6789,-255.4815 536.9884,-253.7496 540.1202,-259.7029 532.2979,-252.0177 532.2979,-252.0177"/>
</g>
<!-- 0x1ca6280: &#160;&#160;%28 = add nsw i32 %27, 1 -->
<g id="node15" class="node">
<title>0x1ca6280: &#160;&#160;%28 = add nsw i32 %27, 1</title>
<polygon fill="none" stroke="#000000" points="864.5,-252 622.5,-252 622.5,-216 864.5,-216 864.5,-252"/>
<text text-anchor="middle" x="743.5" y="-230.3" font-family="Times,serif" font-size="14.00" fill="#000000">0x1ca6280: &#160;&#160;%28 = add nsw i32 %27, 1</text>
</g>
<!-- a_1&#45;&gt;0x1ca6280: &#160;&#160;%28 = add nsw i32 %27, 1 -->
<g id="edge17" class="edge">
<title>a_1&#45;&gt;0x1ca6280: &#160;&#160;%28 = add nsw i32 %27, 1</title>
<path fill="none" stroke="#000000" d="M692.604,-290.3771C700.697,-281.4125 711.0593,-269.9344 720.319,-259.6774"/>
<polygon fill="#000000" stroke="#000000" points="727.1292,-252.1338 723.7684,-262.572 723.7787,-255.8451 720.4282,-259.5565 720.4282,-259.5565 720.4282,-259.5565 723.7787,-255.8451 717.088,-256.541 727.1292,-252.1338 727.1292,-252.1338"/>
</g>
<!-- b_1 -->
<g id="node6" class="node">
<title>b_1</title>
<ellipse fill="none" stroke="#000000" cx="483.5" cy="-306" rx="27" ry="18"/>
<text text-anchor="middle" x="483.5" y="-302.3" font-family="Times,serif" font-size="14.00" fill="#000000">b_1</text>
</g>
<!-- b_1&#45;&gt;0x1ca5310: &#160;&#160;%3 = mul nsw i32 %1, %2 -->
<g id="edge2" class="edge">
<title>b_1&#45;&gt;0x1ca5310: &#160;&#160;%3 = mul nsw i32 %1, %2</title>
<path fill="none" stroke="#000000" d="M483.5,-287.8314C483.5,-280.131 483.5,-270.9743 483.5,-262.4166"/>
<polygon fill="#000000" stroke="#000000" points="483.5,-252.4133 488.0001,-262.4132 483.5,-257.4133 483.5001,-262.4133 483.5001,-262.4133 483.5001,-262.4133 483.5,-257.4133 479.0001,-262.4133 483.5,-252.4133 483.5,-252.4133"/>
</g>
<!-- c_1 -->
<g id="node7" class="node">
<title>c_1</title>
<ellipse fill="none" stroke="#000000" cx="385.5" cy="-162" rx="27" ry="18"/>
<text text-anchor="middle" x="385.5" y="-158.3" font-family="Times,serif" font-size="14.00" fill="#000000">c_1</text>
</g>
<!-- c_1&#45;&gt;0x1ca5530: &#160;&#160;%32 = sdiv i32 %30, %31 -->
<g id="edge20" class="edge">
<title>c_1&#45;&gt;0x1ca5530: &#160;&#160;%32 = sdiv i32 %30, %31</title>
<path fill="none" stroke="#000000" d="M368.5092,-147.7751C356.8144,-137.9842 341.0083,-124.7511 327.4739,-113.42"/>
<ellipse fill="none" stroke="#000000" cx="324.1072" cy="-110.6014" rx="4" ry="4"/>
</g>
<!-- i_1 -->
<g id="node8" class="node">
<title>i_1</title>
<ellipse fill="none" stroke="#000000" cx="808.5" cy="-306" rx="27" ry="18"/>
<text text-anchor="middle" x="808.5" y="-302.3" font-family="Times,serif" font-size="14.00" fill="#000000">i_1</text>
</g>
<!-- 0x1ca58d0: &#160;&#160;%10 = srem i32 %9, 5 -->
<g id="node11" class="node">
<title>0x1ca58d0: &#160;&#160;%10 = srem i32 %9, 5</title>
<polygon fill="none" stroke="#000000" points="1100,-252 883,-252 883,-216 1100,-216 1100,-252"/>
<text text-anchor="middle" x="991.5" y="-230.3" font-family="Times,serif" font-size="14.00" fill="#000000">0x1ca58d0: &#160;&#160;%10 = srem i32 %9, 5</text>
</g>
<!-- i_1&#45;&gt;0x1ca58d0: &#160;&#160;%10 = srem i32 %9, 5 -->
<g id="edge4" class="edge">
<title>i_1&#45;&gt;0x1ca58d0: &#160;&#160;%10 = srem i32 %9, 5</title>
<path fill="none" stroke="#000000" d="M832.0494,-296.7347C858.1679,-286.4585 901.2089,-269.5244 935.9937,-255.8385"/>
<polygon fill="#000000" stroke="#000000" points="945.565,-252.0728 937.9069,-259.9217 940.9121,-253.9035 936.2593,-255.7341 936.2593,-255.7341 936.2593,-255.7341 940.9121,-253.9035 934.6117,-251.5466 945.565,-252.0728 945.565,-252.0728"/>
</g>
<!-- i_1&#45;&gt;0x1ca6280: &#160;&#160;%28 = add nsw i32 %27, 1 -->
<g id="edge16" class="edge">
<title>i_1&#45;&gt;0x1ca6280: &#160;&#160;%28 = add nsw i32 %27, 1</title>
<path fill="none" stroke="#000000" d="M794.396,-290.3771C786.303,-281.4125 775.9407,-269.9344 766.681,-259.6774"/>
<polygon fill="#000000" stroke="#000000" points="759.8708,-252.1338 769.912,-256.541 763.2213,-255.8451 766.5718,-259.5565 766.5718,-259.5565 766.5718,-259.5565 763.2213,-255.8451 763.2316,-262.572 759.8708,-252.1338 759.8708,-252.1338"/>
</g>
<!-- i_2 -->
<g id="node9" class="node">
<title>i_2</title>
<ellipse fill="none" stroke="#000000" cx="743.5" cy="-162" rx="27" ry="18"/>
<text text-anchor="middle" x="743.5" y="-158.3" font-family="Times,serif" font-size="14.00" fill="#000000">i_2</text>
</g>
<!-- 0x1ca5310: &#160;&#160;%3 = mul nsw i32 %1, %2&#45;&gt;c_1 -->
<g id="edge3" class="edge">
<title>0x1ca5310: &#160;&#160;%3 = mul nsw i32 %1, %2&#45;&gt;c_1</title>
<path fill="none" stroke="#000000" d="M458.7705,-215.8314C444.4557,-205.3144 426.4439,-192.0812 411.8609,-181.3672"/>
<polygon fill="#000000" stroke="#000000" points="403.7249,-175.3897 414.4481,-177.684 407.7543,-178.3501 411.7837,-181.3105 411.7837,-181.3105 411.7837,-181.3105 407.7543,-178.3501 409.1193,-184.937 403.7249,-175.3897 403.7249,-175.3897"/>
</g>
<!-- %13 -->
<g id="node18" class="node">
<title>%13</title>
<ellipse fill="none" stroke="#000000" cx="991.5" cy="-162" rx="27.0966" ry="18"/>
<text text-anchor="middle" x="991.5" y="-158.3" font-family="Times,serif" font-size="14.00" fill="#000000">%13</text>
</g>
<!-- 0x1ca58d0: &#160;&#160;%10 = srem i32 %9, 5&#45;&gt;%13 -->
<g id="edge6" class="edge">
<title>0x1ca58d0: &#160;&#160;%10 = srem i32 %9, 5&#45;&gt;%13</title>
<path fill="none" stroke="#000000" d="M991.5,-215.8314C991.5,-208.131 991.5,-198.9743 991.5,-190.4166"/>
<polygon fill="#000000" stroke="#000000" points="991.5,-180.4133 996.0001,-190.4132 991.5,-185.4133 991.5001,-190.4133 991.5001,-190.4133 991.5001,-190.4133 991.5,-185.4133 987.0001,-190.4133 991.5,-180.4133 991.5,-180.4133"/>
</g>
<!-- 0x1ca5ac0: &#160;&#160;%14 = and i32 %13, 3&#45;&gt;ret_2 -->
<g id="edge9" class="edge">
<title>0x1ca5ac0: &#160;&#160;%14 = and i32 %13, 3&#45;&gt;ret_2</title>
<path fill="none" stroke="#000000" d="M117.5937,-503.8314C122.2456,-495.4579 127.8541,-485.3626 132.9512,-476.1878"/>
<polygon fill="#000000" stroke="#000000" points="137.8235,-467.4177 136.9007,-478.3447 135.3953,-471.7885 132.967,-476.1593 132.967,-476.1593 132.967,-476.1593 135.3953,-471.7885 129.0333,-473.9739 137.8235,-467.4177 137.8235,-467.4177"/>
</g>
<!-- 0x1ca5de0: &#160;&#160;%19 = add nsw i32 %18, 3&#45;&gt;ret_3 -->
<g id="edge12" class="edge">
<title>0x1ca5de0: &#160;&#160;%19 = add nsw i32 %18, 3&#45;&gt;ret_3</title>
<path fill="none" stroke="#000000" d="M175.5,-359.8314C175.5,-352.131 175.5,-342.9743 175.5,-334.4166"/>
<polygon fill="#000000" stroke="#000000" points="175.5,-324.4133 180.0001,-334.4132 175.5,-329.4133 175.5001,-334.4133 175.5001,-334.4133 175.5001,-334.4133 175.5,-329.4133 171.0001,-334.4133 175.5,-324.4133 175.5,-324.4133"/>
</g>
<!-- 0x1ca6000: &#160;&#160;%23 = mul nsw i32 %22, %21&#45;&gt;ret_4 -->
<g id="edge15" class="edge">
<title>0x1ca6000: &#160;&#160;%23 = mul nsw i32 %22, %21&#45;&gt;ret_4</title>
<path fill="none" stroke="#000000" d="M225.1171,-215.8314C231.1418,-207.1559 238.45,-196.632 245.0009,-187.1987"/>
<polygon fill="#000000" stroke="#000000" points="250.7456,-178.9263 248.7378,-189.7068 247.8936,-183.0332 245.0416,-187.14 245.0416,-187.14 245.0416,-187.14 247.8936,-183.0332 241.3455,-184.5732 250.7456,-178.9263 250.7456,-178.9263"/>
</g>
<!-- 0x1ca6280: &#160;&#160;%28 = add nsw i32 %27, 1&#45;&gt;i_2 -->
<g id="edge18" class="edge">
<title>0x1ca6280: &#160;&#160;%28 = add nsw i32 %27, 1&#45;&gt;i_2</title>
<path fill="none" stroke="#000000" d="M743.5,-215.8314C743.5,-208.131 743.5,-198.9743 743.5,-190.4166"/>
<polygon fill="#000000" stroke="#000000" points="743.5,-180.4133 748.0001,-190.4132 743.5,-185.4133 743.5001,-190.4133 743.5001,-190.4133 743.5001,-190.4133 743.5,-185.4133 739.0001,-190.4133 743.5,-180.4133 743.5,-180.4133"/>
</g>
<!-- %47 -->
<g id="node21" class="node">
<title>%47</title>
<ellipse fill="none" stroke="#000000" cx="299.5" cy="-18" rx="27.0966" ry="18"/>
<text text-anchor="middle" x="299.5" y="-14.3" font-family="Times,serif" font-size="14.00" fill="#000000">%47</text>
</g>
<!-- 0x1ca5530: &#160;&#160;%32 = sdiv i32 %30, %31&#45;&gt;%47 -->
<g id="edge21" class="edge">
<title>0x1ca5530: &#160;&#160;%32 = sdiv i32 %30, %31&#45;&gt;%47</title>
<path fill="none" stroke="#000000" d="M299.5,-71.8314C299.5,-64.131 299.5,-54.9743 299.5,-46.4166"/>
<polygon fill="#000000" stroke="#000000" points="299.5,-36.4133 304.0001,-46.4132 299.5,-41.4133 299.5001,-46.4133 299.5001,-46.4133 299.5001,-46.4133 299.5,-41.4133 295.0001,-46.4133 299.5,-36.4133 299.5,-36.4133"/>
</g>
<!-- 5 -->
<g id="node17" class="node">
<title>5</title>
<ellipse fill="none" stroke="#000000" cx="991.5" cy="-306" rx="27" ry="18"/>
<text text-anchor="middle" x="991.5" y="-302.3" font-family="Times,serif" font-size="14.00" fill="#000000">5</text>
</g>
<!-- 5&#45;&gt;0x1ca58d0: &#160;&#160;%10 = srem i32 %9, 5 -->
<g id="edge5" class="edge">
<title>5&#45;&gt;0x1ca58d0: &#160;&#160;%10 = srem i32 %9, 5</title>
<path fill="none" stroke="#000000" d="M991.5,-287.8314C991.5,-280.131 991.5,-270.9743 991.5,-262.4166"/>
<polygon fill="#000000" stroke="#000000" points="991.5,-252.4133 996.0001,-262.4132 991.5,-257.4133 991.5001,-262.4133 991.5001,-262.4133 991.5001,-262.4133 991.5,-257.4133 987.0001,-262.4133 991.5,-252.4133 991.5,-252.4133"/>
</g>
<!-- 3 -->
<g id="node19" class="node">
<title>3</title>
<ellipse fill="none" stroke="#000000" cx="212.5" cy="-594" rx="27" ry="18"/>
<text text-anchor="middle" x="212.5" y="-590.3" font-family="Times,serif" font-size="14.00" fill="#000000">3</text>
</g>
<!-- 3&#45;&gt;0x1ca5ac0: &#160;&#160;%14 = and i32 %13, 3 -->
<g id="edge8" class="edge">
<title>3&#45;&gt;0x1ca5ac0: &#160;&#160;%14 = and i32 %13, 3</title>
<path fill="none" stroke="#000000" d="M193.2414,-580.7941C179.024,-571.045 159.2815,-557.5073 142.3243,-545.8795"/>
<polygon fill="#000000" stroke="#000000" points="133.7547,-540.0032 144.5469,-541.9472 137.8783,-542.8309 142.002,-545.6585 142.002,-545.6585 142.002,-545.6585 137.8783,-542.8309 139.4571,-549.3698 133.7547,-540.0032 133.7547,-540.0032"/>
</g>
<!-- 3&#45;&gt;0x1ca5de0: &#160;&#160;%19 = add nsw i32 %18, 3 -->
<g id="edge11" class="edge">
<title>3&#45;&gt;0x1ca5de0: &#160;&#160;%19 = add nsw i32 %18, 3</title>
<path fill="none" stroke="#000000" d="M218.1643,-576.3218C223.2268,-558.11 229.1795,-528.9437 224.5,-504 217.6758,-467.6239 200.6672,-428.2544 188.6099,-403.3809"/>
<ellipse fill="none" stroke="#000000" cx="186.8123" cy="-399.734" rx="4" ry="4"/>
</g>
<!-- %31 -->
<g id="node20" class="node">
<title>%31</title>
<ellipse fill="none" stroke="#000000" cx="249.5" cy="-306" rx="27.0966" ry="18"/>
<text text-anchor="middle" x="249.5" y="-302.3" font-family="Times,serif" font-size="14.00" fill="#000000">%31</text>
</g>
<!-- %31&#45;&gt;0x1ca6000: &#160;&#160;%23 = mul nsw i32 %22, %21 -->
<g id="edge14" class="edge">
<title>%31&#45;&gt;0x1ca6000: &#160;&#160;%23 = mul nsw i32 %22, %21</title>
<path fill="none" stroke="#000000" d="M240.7315,-288.937C236.2018,-280.1223 230.5839,-269.1902 225.5552,-259.4047"/>
<ellipse fill="none" stroke="#000000" cx="223.6807" cy="-255.7569" rx="4" ry="4"/>
</g>
</g>
</svg>
