<?xml version="1.0" encoding="utf-8"?>
<!-- Generator: Adobe Illustrator 21.1.0, SVG Export Plug-In . SVG Version: 6.00 Build 0)  -->
<svg version="1.0" id="图层_1" xmlns="http://www.w3.org/2000/svg" xmlns:xlink="http://www.w3.org/1999/xlink" x="0px" y="0px"
	 viewBox="0 0 270 70" style="enable-background:new 0 0 270 70;" xml:space="preserve">
<path d="M2.1,27.8c0.6-6.6,0.4-20.9,10-17.8c-2.5,2.8,21.2,3,19.7-1.1c2.9-0.2,3.9-0.3,4.7,0.1c10.2,5.3,7,29.4,5.6,39.3
	c-2.4,4.7-7,14.5-9.9,15.1c-6.1-18.5,1-9.9,3.7-12.9c3.5-10.3,2.5-30.9-2.8-33.9c-3.7,0-13.5,3.7-18.7,2.5c-8.1,3-6.3,35-7.6,44.8
	c-3.4-1-3.5-1.7-5-3.8C1.8,51.2,2.1,31.3,2.1,27.8L2.1,27.8z"/>
<path d="M16,26.4c-0.1,0.1-0.1,2.6,0.7,2.6c5.9,0.4,9.5,0.2,9.4-1.9c-0.1-1.4,0.1-1.9-0.6-2.4c-0.6-0.4-3.1-0.5-4.5-0.4
	C18.6,24.6,16.9,24.3,16,26.4L16,26.4z"/>
<path d="M18.9,44c0.5,10.6-6.4,3.5-7.6-1c-0.1-15,29.4-2.6,14.6,5.2C19.8,51.9,22.6,39.4,18.9,44L18.9,44z"/>
<path d="M80.5,5.7c-4.2,2.8-1.5,8.7,3.6,9.2c3.6,0.3-0.3-4.2-0.3-5.9c0-0.5,0.7-2.7-0.2-3.3C83.3,5.4,80.3,4.9,80.5,5.7L80.5,5.7z"
	/>
<path d="M80.8,16.3c1.1,3.4,0.8,5.2-1.2,7.3c-2.6,2.7-7.1,2.7-3.7-1.9c0.7-0.9,1.1-4.9,0.9-6.3C76.6,13.8,81.1,15.7,80.8,16.3
	L80.8,16.3z"/>
<path d="M68.9,68.4c-2.1-1.9-2.7-3.6-3.4-8.3c2.6-9.7,7.3-15.5,7.5-32.7c0-0.2,2.3,0.3,2.3,0.8c0,6.6,0.8,17.2-1.7,21.5
	c-1.2,1.3-1.2,9.7-1.2,11.8C71.6,66,70.5,69.1,68.9,68.4L68.9,68.4z"/>
<path d="M92.1,18.9c-3.4,4.2-1.6,6.5-0.7,8.2c0,3.6-6.4,8.3-8.9,10.9c-1.7,1.8-3.5,4.8-1.7,8c5.1,0.9,6.9-1.3,9.2-5.2
	c1.3-2.2,4.3-7,6.1-10.9c-0.3,0.3,3.5-4.2,5.9-3.8c1.4,4.3-5.1,4-4.5,10.1c3.2,3.4,6.1-6.6,6.5-7.6c1.8-4.1,5.6-9.2,5.8-3.6
	c0.5,5.4,0.2,7.1,1.7,10.5c1.8,2.9,6.3,1.1,4.9-2.7c-2.4-2.6-4.3-0.9-3.9-10.4c0-1.6,0.8-0.3,4.1-2.9c-0.6-0.2,3.3-3.6-0.8-3.8
	c-0.6,0.2-10.5,8.4-11.9,5.4c-1.5-3.2,6.2-6.2,8.2-8.6c0.8-1,1.5-1.5,1.6-4c-2.7-0.4-10.1,1.1-4.9-6c1.1-2.8-6.6-1.2-7-0.7
	c-3.2,1.6-8,5.8-9.8,9.6c-2.3,6.3,1.6,3.9,4.9,2.9c1.9-1.5,4-4.2,7.8-4.2c4.6,0.7-4.8,9.6-4.8,11c-0.7,1.9-0.5,3.6-1,4.3
	C94,28.6,95.3,17.6,92.1,18.9L92.1,18.9z"/>
<path d="M121.7,20.4c2.8,3.6,3,2.7-0.3,6.2c-1.4,1.5,6.1,3,6.4,3.3c1.7,1.8,13.4,1.1,7.8,7.1c-4.1,4.4-14.3-1.7-16.8-4.4
	c-0.8-0.9-6.1-5-4.1-7.1C116.2,23.8,119.1,20.7,121.7,20.4L121.7,20.4z"/>
<path d="M96,38.6c-1.8,0-3.5,7.5-3.9,9.7c-0.6,4-0.8,6.4-0.8,10.1c0,4.2,3.8,4.7,3.8,0.8c0-3.6,0.5-7.5,1.6-10.1
	c1.6-3.3,4.5-1,3.8,4.1c-0.7,9.1,3,1.7,5.9-1.5c0.6-0.9,5.9-11.5,8.1-5c2.7,4.2-6.2,18.1-5.2,19.1c2.5,2.7,7.8-9.3,8.9-11.7
	c1.5-4.9,1.4-10.1-0.8-13.4c-2.5-2.7-4.7-2-7.1,0.6c-0.4,0.5-2.8,7.6-4.4,6c-1-1.5,0.6-5.2-1.4-5.9c-1.7,0.5-4.9,5.1-6.9,4.1
	c-0.4-0.5-0.6-4.4-0.1-5.1C97.8,38.3,96.5,38.6,96,38.6L96,38.6z"/>
<path d="M178.1,7.7c-2.4,4.1-5.5,7.9-7,14.4c-0.4,4.2-0.1,9.1-3,9.2c-3,0-7.5-0.3-9.1,1.4c-2.1,0.1-7.2,8.4-3.3,8.4
	c3.2,0,6.2-0.2,8-2.1c4.6-2.3,6.3-1.8,4.2,1.8c-2.2,4.5-3.9,8.5-6.1,13c-1.7,3.8-3.8,7.6,0.2,8.6c3-1.5,8.9-11.7,10.7-13.4
	c1.5-2.6,2.3-6.1,3-9.4c-0.1-4,1.5-2.3,7.2-2.5c5.9-0.5,5.8,1,6.9-7c-1.3-3.2-4.6,1.2-5.9,1.7c-3.2-0.1-6.2,0.7-6.8-0.4
	c-1.6-3.7,5.2-16.8,5.2-22.1C182.5,5.8,179.5,6.9,178.1,7.7L178.1,7.7z"/>
<path d="M185.3,55.5c1.8,1.9,5.1,3.7,7.2,3.7c1.6,0,1.5-9,0.3-9.5c-1.9-0.4-4.9-2.8-5.6-3.5C180.1,41.8,180.3,51.4,185.3,55.5
	L185.3,55.5z"/>
<path d="M231.8,25c-1.2-4.7,3.9-23.2-1-22c-3.9,1-0.8,16.6-2.8,19.7c-2.8,1.4-6.8-4.3-7.4,1.4c-0.3,3.2,0.3,6.2,0.1,9.4
	c-1.5,10.4,3.8,4,5.2-0.3c0.5-5.2,8.9-3.5,14.4-4.4c7.3,0.6,10.6-3,16.8-1.3c2.3,0-4.9,6.9,5.7,2.9c1.1-0.7,6.2-7.6,3.5-8.1
	c-4.1,0-8.8,1-12.9,1c-13.3,2.5-0.6-4.4,5.4-12.4c2-4,2.3-5.7,0.5-8.8c-2.5-2.8-6.4-0.2-6.6,0.3c-1.8,1.9-3.5,3.9-5.9,4
	c-1.1,0.9,0.1-1.9-0.7-2.8c-4.2-0.5-1.7,3.5-4.4,2.7c-3.4,0.8,0.4-3.3-3.3-3.1c-2,0-2.7,2.2-2.9,4.6c-0.1,1-1.6,0.1-1.7,1.3
	c0.3,2,2.6-0.5,2.1,2.2c0,1.8-1.8,4.5-1.8,6.3c0.5,5.6,3.9,4.3,3.6,0.6c-0.1-2.2,3.7-13.1,4.8-6.9c-1.4,2.9-5.3,16,1.1,8.7
	c1.7-1.8,1.9-2.7,3.4-5.2c1.8-3.9-1.4-7.6,7.8-7.8c0.9,1.9-5.6,9.7-7.2,12.5C244.9,24.9,239.8,26.7,231.8,25L231.8,25z"/>
<path d="M234.2,42.6c-0.7-10.9,10.9-5.1,15.6-9.2c2-1.8,5.4,4.5,3.5,6.6c-12,10,6.8,3.7,5.8,8.6c-0.2,4.4-5.3,1-8.2,3.1
	c0.4,4-9.8,27.9-16.9,12.7c2.2-3.8,7.7,3.4,11.8-8.4c2.3-10.4-6.4-2-8.9-2c-14.4,0-4-7.5,4.9-7.1c5.5,0,5.1-9.6,1.3-6.2
	C240.2,43.5,237.6,43,234.2,42.6L234.2,42.6z"/>
</svg>
